Comme-Extra-Bold.ufo
<glyph name="exclam" format="1">
  <advance width="776"/>
  <unicode hex="0021"/>
  <outline>
    <contour>
      <point x="325" y="476" type="line"/>
      <point x="467" y="476" type="line"/>
      <point x="532" y="1316" type="line"/>
      <point x="532" y="1590" type="line"/>
      <point x="251" y="1590" type="line"/>
      <point x="251" y="1316" type="line"/>
    </contour>
    <contour>
      <point x="385" y="-6" type="curve" smooth="yes"/>
      <point x="479" y="-6"/>
      <point x="556" y="76"/>
      <point x="556" y="171" type="curve" smooth="yes"/>
      <point x="556" y="271"/>
      <point x="479" y="347"/>
      <point x="385" y="347" type="curve" smooth="yes"/>
      <point x="291" y="347"/>
      <point x="211" y="271"/>
      <point x="211" y="171" type="curve" smooth="yes"/>
      <point x="211" y="75"/>
      <point x="291" y="-6"/>
    </contour>
  </outline>
</glyph>
<glyph name="quotedbl" format="1">
  <advance width="908"/>
  <unicode hex="0022"/>
  <outline>
    <contour>
      <point x="187" y="888" type="line"/>
      <point x="361" y="888" type="line"/>
      <point x="411" y="1565" type="line"/>
      <point x="83" y="1565" type="line"/>
    </contour>
    <contour>
      <point x="614" y="888" type="line"/>
      <point x="788" y="888" type="line"/>
      <point x="839" y="1565" type="line"/>
      <point x="511" y="1565" type="line"/>
    </contour>
  </outline>
</glyph>
<glyph name="parenright" format="1">
  <advance width="901"/>
  <unicode hex="0029"/>
  <outline>
    <contour>
      <point x="132" y="-312" type="line"/>
      <point x="406" y="-312" type="line"/>
      <point x="551" y="-155"/>
      <point x="695" y="269"/>
      <point x="695" y="641" type="curve" smooth="yes"/>
      <point x="695" y="1015"/>
      <point x="551" y="1440"/>
      <point x="406" y="1597" type="curve"/>
      <point x="132" y="1597" type="line"/>
      <point x="132" y="1556" type="line"/>
      <point x="256" y="1448"/>
      <point x="417" y="1189"/>
      <point x="417" y="641" type="curve" smooth="yes"/>
      <point x="417" y="96"/>
      <point x="256" y="-175"/>
      <point x="132" y="-284" type="curve"/>
    </contour>
  </outline>
</glyph>
<glyph name="comma" format="1">
  <advance width="692"/>
  <unicode hex="002C"/>
  <outline>
    <contour>
      <point x="182" y="-361" type="curve"/>
      <point x="418" y="-361" type="line"/>
      <point x="543" y="93" type="line"/>
      <point x="543" y="291" type="line"/>
      <point x="219" y="291" type="line"/>
      <point x="219" y="214"/>
      <point x="182" y="-361"/>
    </contour>
  </outline>
</glyph>
<glyph name="hyphen" format="1">
  <advance width="985"/>
  <unicode hex="002D"/>
  <outline>
    <contour>
      <point x="500" y="514" type="move" name="_mid"/>
    </contour>
    <contour>
      <point x="136" y="402" type="line"/>
      <point x="861" y="402" type="line"/>
      <point x="861" y="641" type="line"/>
      <point x="136" y="641" type="line"/>
    </contour>
  </outline>
</glyph>
<glyph name="slash" format="1">
  <advance width="1033"/>
  <unicode hex="002F"/>
  <outline>
    <contour>
      <point x="41" y="-193" type="line"/>
      <point x="272" y="-193" type="line"/>
      <point x="934" y="1560" type="line"/>
      <point x="699" y="1560" type="line"/>
    </contour>
  </outline>
</glyph>
<glyph name="zero" format="1">
  <advance width="1408"/>
  <unicode hex="0030"/>
  <outline>
    <contour>
      <point x="703" y="280" type="curve" smooth="yes"/>
      <point x="590" y="280"/>
      <point x="519" y="464"/>
      <point x="519" y="734" type="curve" smooth="yes"/>
      <point x="523" y="1001"/>
      <point x="595" y="1174"/>
      <point x="703" y="1174" type="curve" smooth="yes"/>
      <point x="817" y="1174"/>
      <point x="888" y="999"/>
      <point x="888" y="734" type="curve" smooth="yes"/>
      <point x="888" y="464"/>
      <point x="817" y="280"/>
    </contour>
    <contour>
      <point x="703" y="-20" type="curve" smooth="yes"/>
      <point x="1088" y="-20"/>
      <point x="1339" y="272"/>
      <point x="1339" y="735" type="curve" smooth="yes"/>
      <point x="1339" y="1191"/>
      <point x="1090" y="1476"/>
      <point x="703" y="1476" type="curve" smooth="yes"/>
      <point x="316" y="1476"/>
      <point x="69" y="1191"/>
      <point x="69" y="735" type="curve" smooth="yes"/>
      <point x="69" y="272"/>
      <point x="319" y="-20"/>
    </contour>
  </outline>
</glyph>
<glyph name="one" format="1">
  <advance width="1408"/>
  <unicode hex="0031"/>
  <outline>
    <contour>
      <point x="192" y="0" type="line"/>
      <point x="1319" y="0" type="line"/>
      <point x="1319" y="280" type="line"/>
      <point x="998" y="280" type="line"/>
      <point x="998" y="1456" type="line"/>
      <point x="626" y="1456" type="line"/>
      <point x="517" y="1373"/>
      <point x="338" y="1301"/>
      <point x="190" y="1258" type="curve"/>
      <point x="190" y="995" type="line"/>
      <point x="306" y="1008"/>
      <point x="452" y="1055"/>
      <point x="559" y="1100" type="curve"/>
      <point x="559" y="280" type="line"/>
      <point x="192" y="280" type="line"/>
    </contour>
  </outline>
</glyph>
<glyph name="three" format="1">
  <advance width="1220"/>
  <unicode hex="0033"/>
  <outline>
    <contour>
      <point x="542" y="-20" type="curve" smooth="yes"/>
      <point x="798" y="-20"/>
      <point x="1120" y="76"/>
      <point x="1120" y="425" type="curve" smooth="yes"/>
      <point x="1120" y="553"/>
      <point x="1046" y="719"/>
      <point x="786" y="751" type="curve"/>
      <point x="1043" y="796"/>
      <point x="1078" y="966"/>
      <point x="1078" y="1094" type="curve" smooth="yes"/>
      <point x="1070" y="1375"/>
      <point x="830" y="1476"/>
      <point x="523" y="1476" type="curve" smooth="yes"/>
      <point x="255" y="1476"/>
      <point x="122" y="1346"/>
      <point x="50" y="1272" type="curve"/>
      <point x="223" y="1074" type="line"/>
      <point x="244" y="1067" type="line"/>
      <point x="325" y="1137"/>
      <point x="402" y="1169"/>
      <point x="492" y="1174" type="curve" smooth="yes"/>
      <point x="608" y="1174"/>
      <point x="667" y="1134"/>
      <point x="675" y="1032" type="curve" smooth="yes"/>
      <point x="675" y="873"/>
      <point x="594" y="837"/>
      <point x="373" y="837" type="curve" smooth="yes"/>
      <point x="258" y="835" type="line"/>
      <point x="278" y="606" type="line"/>
      <point x="378" y="606" type="line" smooth="yes"/>
      <point x="562" y="606"/>
      <point x="689" y="589"/>
      <point x="689" y="442" type="curve" smooth="yes"/>
      <point x="689" y="347"/>
      <point x="643" y="276"/>
      <point x="506" y="276" type="curve" smooth="yes"/>
      <point x="355" y="276"/>
      <point x="261" y="353"/>
      <point x="212" y="394" type="curve"/>
      <point x="183" y="394" type="line"/>
      <point x="32" y="184" type="line"/>
      <point x="44" y="171"/>
      <point x="211" y="-20"/>
    </contour>
  </outline>
</glyph>
<glyph name="five" format="1">
  <advance width="1378"/>
  <unicode hex="0035"/>
  <outline>
    <contour>
      <point x="341" y="397" type="line"/>
      <point x="168" y="209" type="line"/>
      <point x="272" y="55"/>
      <point x="431" y="-20"/>
      <point x="694" y="-20" type="curve" smooth="yes"/>
      <point x="1029" y="-20"/>
      <point x="1213" y="209"/>
      <point x="1213" y="485" type="curve" smooth="yes"/>
      <point x="1213" y="713"/>
      <point x="1075" y="958"/>
      <point x="749" y="958" type="curve" smooth="yes"/>
      <point x="626" y="958"/>
      <point x="551" y="920"/>
      <point x="488" y="850" type="curve"/>
      <point x="516" y="827" type="line"/>
      <point x="567" y="1216" type="line"/>
      <point x="1112" y="1216" type="line"/>
      <point x="1146" y="1456" type="line"/>
      <point x="289" y="1456" type="line"/>
      <point x="226" y="643" type="line"/>
      <point x="487" y="600" type="line"/>
      <point x="509" y="684"/>
      <point x="572" y="723"/>
      <point x="687" y="723" type="curve" smooth="yes"/>
      <point x="807" y="722"/>
      <point x="878" y="617"/>
      <point x="879" y="508" type="curve" smooth="yes"/>
      <point x="881" y="346"/>
      <point x="807" y="249"/>
      <point x="653" y="249" type="curve" smooth="yes"/>
      <point x="552" y="249"/>
      <point x="424" y="287"/>
      <point x="361" y="397" type="curve"/>
    </contour>
  </outline>
</glyph>
<glyph name="colon" format="1">
  <advance width="719"/>
  <unicode hex="003A"/>
  <outline>
    <contour>
      <point x="369" y="-5" type="curve" smooth="yes"/>
      <point x="469" y="-5"/>
      <point x="555" y="47"/>
      <point x="555" y="165" type="curve" smooth="yes"/>
      <point x="555" y="289"/>
      <point x="469" y="343"/>
      <point x="369" y="343" type="curve" smooth="yes"/>
      <point x="273" y="343"/>
      <point x="186" y="289"/>
      <point x="186" y="165" type="curve" smooth="yes"/>
      <point x="186" y="44"/>
      <point x="275" y="-5"/>
    </contour>
    <contour>
      <point x="369" y="775" type="curve" smooth="yes"/>
      <point x="469" y="775"/>
      <point x="555" y="828"/>
      <point x="555" y="946" type="curve" smooth="yes"/>
      <point x="555" y="1069"/>
      <point x="469" y="1123"/>
      <point x="369" y="1123" type="curve" smooth="yes"/>
      <point x="273" y="1123"/>
      <point x="186" y="1069"/>
      <point x="186" y="946" type="curve" smooth="yes"/>
      <point x="186" y="825"/>
      <point x="275" y="775"/>
    </contour>
  </outline>
</glyph>
<glyph name="semicolon" format="1">
  <advance width="776"/>
  <unicode hex="003B"/>
  <outline>
    <contour>
      <point x="192" y="-361" type="curve"/>
      <point x="428" y="-361" type="line"/>
      <point x="553" y="93" type="line"/>
      <point x="553" y="291" type="line"/>
      <point x="228" y="291" type="line"/>
      <point x="228" y="214"/>
      <point x="192" y="-361"/>
    </contour>
    <contour>
      <point x="386" y="775" type="curve" smooth="yes"/>
      <point x="486" y="775"/>
      <point x="572" y="828"/>
      <point x="572" y="946" type="curve" smooth="yes"/>
      <point x="572" y="1070"/>
      <point x="486" y="1123"/>
      <point x="386" y="1123" type="curve" smooth="yes"/>
      <point x="290" y="1123"/>
      <point x="203" y="1070"/>
      <point x="203" y="946" type="curve" smooth="yes"/>
      <point x="203" y="825"/>
      <point x="292" y="775"/>
    </contour>
  </outline>
</glyph>
<glyph name="less" format="1">
  <advance width="1107"/>
  <unicode hex="003C"/>
  <outline>
    <contour>
      <point x="998" y="200" type="line"/>
      <point x="998" y="477" type="line"/>
      <point x="422" y="749" type="line"/>
      <point x="998" y="1048" type="line"/>
      <point x="998" y="1315" type="line"/>
      <point x="50" y="817" type="line"/>
      <point x="50" y="666" type="line"/>
    </contour>
  </outline>
</glyph>
<glyph name="equal" format="1">
  <advance width="1319"/>
  <unicode hex="003D"/>
  <outline>
    <contour>
      <point x="86" y="507" type="line"/>
      <point x="1199" y="507" type="line"/>
      <point x="1199" y="744" type="line"/>
      <point x="86" y="744" type="line"/>
    </contour>
    <contour>
      <point x="86" y="951" type="line"/>
      <point x="1199" y="951" type="line"/>
      <point x="1199" y="1186" type="line"/>
      <point x="86" y="1186" type="line"/>
    </contour>
  </outline>
</glyph>
<glyph name="greater" format="1">
  <advance width="1107"/>
  <unicode hex="003E"/>
  <outline>
    <contour>
      <point x="84" y="1045" type="line"/>
      <point x="691" y="729" type="line"/>
      <point x="84" y="442" type="line"/>
      <point x="84" y="188" type="line"/>
      <point x="1029" y="652" type="line"/>
      <point x="1029" y="792" type="line"/>
      <point x="84" y="1289" type="line"/>
    </contour>
  </outline>
</glyph>
<glyph name="question" format="1">
  <advance width="1111"/>
  <unicode hex="003F"/>
  <outline>
    <contour>
      <point x="320" y="524" type="curve"/>
      <point x="396" y="490" type="line"/>
      <point x="616" y="781"/>
      <point x="970" y="818"/>
      <point x="970" y="1222" type="curve" smooth="yes"/>
      <point x="970" y="1435"/>
      <point x="763" y="1570"/>
      <point x="530" y="1570" type="curve" smooth="yes"/>
      <point x="413" y="1570"/>
      <point x="224" y="1530"/>
      <point x="114" y="1418" type="curve"/>
      <point x="211" y="1146" type="line"/>
      <point x="298" y="1193"/>
      <point x="393" y="1216"/>
      <point x="460" y="1216" type="curve" smooth="yes"/>
      <point x="570" y="1216"/>
      <point x="603" y="1152"/>
      <point x="603" y="1088" type="curve" smooth="yes"/>
      <point x="603" y="963"/>
      <point x="472" y="900"/>
    </contour>
    <contour>
      <point x="364" y="-21" type="curve" smooth="yes"/>
      <point x="464" y="-21"/>
      <point x="530" y="45"/>
      <point x="530" y="150" type="curve" smooth="yes"/>
      <point x="530" y="257"/>
      <point x="464" y="321"/>
      <point x="364" y="321" type="curve" smooth="yes"/>
      <point x="259" y="321"/>
      <point x="192" y="257"/>
      <point x="192" y="150" type="curve" smooth="yes"/>
      <point x="192" y="44"/>
      <point x="259" y="-21"/>
    </contour>
  </outline>
</glyph>
<glyph name="A" format="1">
  <advance width="1575"/>
  <unicode hex="0041"/>
  <outline>
    <contour>
      <point x="798" y="1456" type="move" name="top"/>
    </contour>
    <contour>
      <point x="1327" y="0" type="move" name="ogonek"/>
    </contour>
    <contour>
      <point x="796" y="0" type="move" name="bot"/>
    </contour>
    <contour>
      <point x="54" y="0" type="line"/>
      <point x="484" y="0" type="line"/>
      <point x="585" y="340" type="line"/>
      <point x="983" y="340" type="line"/>
      <point x="1091" y="0" type="line"/>
      <point x="1521" y="0" type="line"/>
      <point x="1065" y="1456" type="line"/>
      <point x="519" y="1456" type="line"/>
    </contour>
    <contour>
      <point x="661" y="594" type="line"/>
      <point x="791" y="1118" type="line"/>
      <point x="914" y="594" type="line"/>
    </contour>
  </outline>
</glyph>
<glyph name="B" format="1">
  <advance width="1444"/>
  <unicode hex="0042"/>
  <outline>
    <contour>
      <point x="700" y="1456" type="move" name="top"/>
    </contour>
    <contour>
      <point x="610" y="2" type="curve" smooth="yes"/>
      <point x="1218" y="2"/>
      <point x="1359" y="154"/>
      <point x="1359" y="434" type="curve" smooth="yes"/>
      <point x="1359" y="687"/>
      <point x="1215" y="777"/>
      <point x="880" y="802" type="curve"/>
      <point x="880" y="749" type="line"/>
      <point x="1151" y="778"/>
      <point x="1321" y="899"/>
      <point x="1321" y="1083" type="curve" smooth="yes"/>
      <point x="1321" y="1460"/>
      <point x="986" y="1467"/>
      <point x="622" y="1467" type="curve" smooth="yes"/>
      <point x="492" y="1467"/>
      <point x="340" y="1462"/>
      <point x="171" y="1454" type="curve"/>
      <point x="171" y="20" type="line"/>
      <point x="339" y="7"/>
      <point x="486" y="2"/>
    </contour>
    <contour>
      <point x="552" y="203" type="line"/>
      <point x="552" y="692" type="line"/>
      <point x="505" y="653" type="line"/>
      <point x="701" y="653" type="line" smooth="yes"/>
      <point x="885" y="653"/>
      <point x="981" y="631"/>
      <point x="981" y="461" type="curve" smooth="yes"/>
      <point x="981" y="286"/>
      <point x="888" y="247"/>
      <point x="645" y="247" type="curve" smooth="yes"/>
      <point x="574" y="247"/>
      <point x="494" y="253"/>
      <point x="449" y="259" type="curve"/>
    </contour>
    <contour>
      <point x="552" y="839" type="line"/>
      <point x="552" y="1272" type="line"/>
      <point x="469" y="1227" type="line"/>
      <point x="504" y="1232"/>
      <point x="584" y="1232"/>
      <point x="650" y="1232" type="curve" smooth="yes"/>
      <point x="844" y="1232"/>
      <point x="922" y="1206"/>
      <point x="922" y="1045" type="curve" smooth="yes"/>
      <point x="922" y="922"/>
      <point x="839" y="875"/>
      <point x="707" y="875" type="curve" smooth="yes"/>
      <point x="501" y="875" type="line"/>
    </contour>
  </outline>
</glyph>
<glyph name="C" format="1">
  <advance width="1593"/>
  <unicode hex="0043"/>
  <outline>
    <contour>
      <point x="881" y="1456" type="move" name="top"/>
    </contour>
    <contour>
      <point x="861" y="-1" type="move" name="bot"/>
    </contour>
    <contour>
      <point x="116" y="733" type="curve" smooth="yes"/>
      <point x="116" y="247"/>
      <point x="388" y="-21"/>
      <point x="855" y="-20" type="curve" smooth="yes"/>
      <point x="1311" y="-19"/>
      <point x="1449" y="261"/>
      <point x="1485" y="427" type="curve"/>
      <point x="1206" y="540" type="line"/>
      <point x="1178" y="540" type="line"/>
      <point x="1143" y="404"/>
      <point x="1054" y="238"/>
      <point x="858" y="238" type="curve" smooth="yes"/>
      <point x="664" y="237"/>
      <point x="522" y="365"/>
      <point x="522" y="733" type="curve" smooth="yes"/>
      <point x="522" y="1089"/>
      <point x="640" y="1201"/>
      <point x="859" y="1217" type="curve" smooth="yes"/>
      <point x="1054" y="1224"/>
      <point x="1143" y="1049"/>
      <point x="1178" y="913" type="curve"/>
      <point x="1206" y="913" type="line"/>
      <point x="1485" y="1026" type="line"/>
      <point x="1449" y="1188"/>
      <point x="1297" y="1475"/>
      <point x="856" y="1476" type="curve" smooth="yes"/>
      <point x="388" y="1477"/>
      <point x="116" y="1207"/>
    </contour>
  </outline>
</glyph>
<glyph name="D" format="1">
  <advance width="1555"/>
  <unicode hex="0044"/>
  <outline>
    <contour>
      <point x="810" y="1456" type="move" name="top"/>
    </contour>
    <contour>
      <point x="770" y="1" type="move" name="bot"/>
    </contour>
    <contour>
      <point x="381" y="747" type="move" name="mid"/>
    </contour>
    <contour>
      <point x="171" y="6" type="line"/>
      <point x="1160" y="-93"/>
      <point x="1439" y="240"/>
      <point x="1439" y="758" type="curve" smooth="yes"/>
      <point x="1439" y="1354"/>
      <point x="1115" y="1521"/>
      <point x="171" y="1454" type="curve"/>
    </contour>
    <contour>
      <point x="446" y="1205" type="line"/>
      <point x="1013" y="1262"/>
      <point x="1071" y="1024"/>
      <point x="1071" y="753" type="curve" smooth="yes"/>
      <point x="1071" y="408"/>
      <point x="922" y="212"/>
      <point x="441" y="269" type="curve"/>
      <point x="552" y="172" type="line"/>
      <point x="552" y="1285" type="line"/>
    </contour>
  </outline>
</glyph>
<glyph name="F" format="1">
  <advance width="1267"/>
  <unicode hex="0046"/>
  <outline>
    <contour>
      <point x="725" y="1456" type="move" name="top"/>
    </contour>
    <contour>
      <point x="164" y="0" type="line"/>
      <point x="590" y="0" type="line"/>
      <point x="590" y="572" type="line"/>
      <point x="1155" y="572" type="line"/>
      <point x="1155" y="851" type="line"/>
      <point x="590" y="851" type="line"/>
      <point x="590" y="1165" type="line"/>
      <point x="1166" y="1165" type="line"/>
      <point x="1184" y="1456" type="line"/>
      <point x="164" y="1456" type="line"/>
    </contour>
  </outline>
</glyph>
<glyph name="G" format="1">
  <advance width="1623"/>
  <unicode hex="0047"/>
  <outline>
    <contour>
      <point x="846" y="1456" type="move" name="top"/>
    </contour>
    <contour>
      <point x="748" y="-1" type="move" name="bot"/>
    </contour>
    <contour>
      <point x="855" y="-20" type="curve" smooth="yes"/>
      <point x="1112" y="-20"/>
      <point x="1343" y="35"/>
      <point x="1475" y="86" type="curve"/>
      <point x="1475" y="804" type="line"/>
      <point x="839" y="804" type="line"/>
      <point x="830" y="569" type="line"/>
      <point x="1129" y="549" type="line"/>
      <point x="1129" y="285" type="line"/>
      <point x="1126" y="285"/>
      <point x="1036" y="263"/>
      <point x="918" y="263" type="curve" smooth="yes"/>
      <point x="757" y="263"/>
      <point x="564" y="328"/>
      <point x="564" y="725" type="curve" smooth="yes"/>
      <point x="564" y="1049"/>
      <point x="726" y="1189"/>
      <point x="943" y="1189" type="curve" smooth="yes"/>
      <point x="1088" y="1189"/>
      <point x="1191" y="1129"/>
      <point x="1265" y="1002" type="curve"/>
      <point x="1285" y="1004" type="line"/>
      <point x="1493" y="1190" type="line"/>
      <point x="1392" y="1357"/>
      <point x="1237" y="1478"/>
      <point x="906" y="1478" type="curve" smooth="yes"/>
      <point x="475" y="1478"/>
      <point x="107" y="1242"/>
      <point x="107" y="724" type="curve" smooth="yes"/>
      <point x="107" y="230"/>
      <point x="400" y="-20"/>
    </contour>
  </outline>
</glyph>
<glyph name="J" format="1">
  <advance width="822"/>
  <unicode hex="004A"/>
  <outline>
    <contour>
      <point x="454" y="1456" type="move" name="top"/>
    </contour>
    <contour>
      <point x="48" y="-623" type="line"/>
      <point x="235" y="-539" type="line"/>
      <point x="716" y="-322"/>
      <point x="662" y="-148"/>
      <point x="662" y="330" type="curve" smooth="yes"/>
      <point x="662" y="1456" type="line"/>
      <point x="237" y="1456" type="line"/>
      <point x="237" y="342" type="line" smooth="yes"/>
      <point x="237" y="-64"/>
      <point x="227" y="-131"/>
      <point x="110" y="-189" type="curve" smooth="yes"/>
      <point x="-102" y="-295" type="line"/>
    </contour>
  </outline>
</glyph>
<glyph name="K" format="1">
  <advance width="1485"/>
  <unicode hex="004B"/>
  <outline>
    <contour>
      <point x="801" y="1456" type="move" name="top"/>
    </contour>
    <contour>
      <point x="798" y="0" type="move" name="bot"/>
    </contour>
    <contour>
      <point x="164" y="0" type="line"/>
      <point x="590" y="0" type="line"/>
      <point x="590" y="519" type="line"/>
      <point x="615" y="552" type="line"/>
      <point x="1007" y="0" type="line"/>
      <point x="1483" y="0" type="line"/>
      <point x="1483" y="4" type="line"/>
      <point x="926" y="784" type="line"/>
      <point x="1420" y="1450" type="line"/>
      <point x="1420" y="1456" type="line"/>
      <point x="956" y="1456" type="line"/>
      <point x="590" y="932" type="line"/>
      <point x="590" y="1456" type="line"/>
      <point x="164" y="1456" type="line"/>
    </contour>
  </outline>
</glyph>
<glyph name="L" format="1">
  <advance width="1230"/>
  <unicode hex="004C"/>
  <outline>
    <contour>
      <point x="356" y="1456" type="move" name="top"/>
    </contour>
    <contour>
      <point x="535" y="0" type="move" name="bot"/>
    </contour>
    <contour>
      <point x="391" y="834" type="move" name="mid"/>
    </contour>
    <contour>
      <point x="164" y="0" type="line"/>
      <point x="1183" y="0" type="line"/>
      <point x="1208" y="262" type="line"/>
      <point x="590" y="262" type="line"/>
      <point x="590" y="1456" type="line"/>
      <point x="164" y="1456" type="line"/>
    </contour>
  </outline>
</glyph>
<glyph name="M" format="1">
  <advance width="1927"/>
  <unicode hex="004D"/>
  <outline>
    <contour>
      <point x="962" y="1456" type="move" name="top"/>
    </contour>
    <contour>
      <point x="146" y="-7" type="line"/>
      <point x="543" y="-7" type="line"/>
      <point x="543" y="574" type="line"/>
      <point x="550" y="836" type="line"/>
      <point x="836" y="253" type="line"/>
      <point x="1081" y="253" type="line"/>
      <point x="1374" y="839" type="line"/>
      <point x="1380" y="577" type="line"/>
      <point x="1380" y="-7" type="line"/>
      <point x="1782" y="-7" type="line"/>
      <point x="1782" y="654" type="line"/>
      <point x="1760" y="1456" type="line"/>
      <point x="1345" y="1456" type="line"/>
      <point x="969" y="725" type="line"/>
      <point x="592" y="1456" type="line"/>
      <point x="168" y="1456" type="line"/>
      <point x="146" y="644" type="line"/>
    </contour>
  </outline>
</glyph>
<glyph name="N" format="1">
  <advance width="1637"/>
  <unicode hex="004E"/>
  <outline>
    <contour>
      <point x="762" y="1456" type="move" name="top"/>
    </contour>
    <contour>
      <point x="779" y="0" type="move" name="bot"/>
    </contour>
    <contour>
      <point x="1111" y="1456" type="line"/>
      <point x="1111" y="903" type="line"/>
      <point x="1134" y="375" type="line"/>
      <point x="1223" y="374" type="line"/>
      <point x="530" y="1456" type="line"/>
      <point x="171" y="1456" type="line"/>
      <point x="171" y="0" type="line"/>
      <point x="536" y="0" type="line"/>
      <point x="536" y="530" type="line"/>
      <point x="512" y="1034" type="line"/>
      <point x="424" y="1036" type="line"/>
      <point x="1094" y="0" type="line"/>
      <point x="1466" y="0" type="line"/>
      <point x="1466" y="1456" type="line"/>
    </contour>
  </outline>
</glyph>
<glyph name="P" format="1">
  <advance width="1494"/>
  <unicode hex="0050"/>
  <outline>
    <contour>
      <point x="742" y="1456" type="move" name="top"/>
    </contour>
    <contour>
      <point x="164" y="0" type="line"/>
      <point x="590" y="0" type="line"/>
      <point x="590" y="462" type="line"/>
      <point x="632" y="460"/>
      <point x="673" y="459"/>
      <point x="712" y="459" type="curve" smooth="yes"/>
      <point x="1245" y="459"/>
      <point x="1431" y="650"/>
      <point x="1431" y="994" type="curve" smooth="yes"/>
      <point x="1431" y="1322"/>
      <point x="1238" y="1468"/>
      <point x="549" y="1468" type="curve" smooth="yes"/>
      <point x="435" y="1468"/>
      <point x="307" y="1464"/>
      <point x="164" y="1455" type="curve"/>
    </contour>
    <contour>
      <point x="650" y="730" type="curve" smooth="yes"/>
      <point x="632" y="730"/>
      <point x="611" y="731"/>
      <point x="590" y="732" type="curve"/>
      <point x="590" y="1204" type="line"/>
      <point x="606" y="1204"/>
      <point x="622" y="1205"/>
      <point x="636" y="1205" type="curve" smooth="yes"/>
      <point x="980" y="1205"/>
      <point x="1022" y="1096"/>
      <point x="1022" y="973" type="curve" smooth="yes"/>
      <point x="1022" y="843"/>
      <point x="952" y="730"/>
    </contour>
  </outline>
</glyph>
<glyph name="Q" format="1">
  <advance width="1679"/>
  <unicode hex="0051"/>
  <outline>
    <contour>
      <point x="1266" y="-560" type="curve"/>
      <point x="1533" y="-334" type="line"/>
      <point x="1334" y="-164"/>
      <point x="1223" y="-36"/>
      <point x="1109" y="143" type="curve"/>
      <point x="730" y="98" type="line"/>
      <point x="771" y="-31"/>
      <point x="1062" y="-391"/>
    </contour>
    <component base="O"/>
  </outline>
</glyph>
<glyph name="V" format="1">
  <advance width="1364"/>
  <unicode hex="0056"/>
  <outline>
    <contour>
      <point x="416" y="-7" type="line"/>
      <point x="907" y="-7" type="line"/>
      <point x="1375" y="1456" type="line"/>
      <point x="969" y="1456" type="line"/>
      <point x="963" y="1440"/>
      <point x="680" y="402"/>
      <point x="675" y="385" type="curve"/>
      <point x="588" y="747"/>
      <point x="490" y="1099"/>
      <point x="400" y="1456" type="curve"/>
      <point x="-10" y="1456" type="line"/>
    </contour>
  </outline>
</glyph>
<glyph name="W" format="1">
  <advance width="2064"/>
  <unicode hex="0057"/>
  <outline>
    <contour>
      <point x="1036" y="1456" type="move" name="top"/>
    </contour>
    <contour>
      <point x="1008" y="0" type="move" name="bot"/>
    </contour>
    <contour>
      <point x="381" y="0" type="line"/>
      <point x="768" y="0" type="line"/>
      <point x="1021" y="917" type="line"/>
      <point x="1261" y="0" type="line"/>
      <point x="1644" y="0" type="line"/>
      <point x="2022" y="1456" type="line"/>
      <point x="1611" y="1456" type="line"/>
      <point x="1433" y="554" type="line"/>
      <point x="1187" y="1456" type="line"/>
      <point x="856" y="1456" type="line"/>
      <point x="613" y="559" type="line"/>
      <point x="455" y="1456" type="line"/>
      <point x="41" y="1456" type="line"/>
    </contour>
  </outline>
</glyph>
<glyph name="X" format="1">
  <advance width="1421"/>
  <unicode hex="0058"/>
  <outline>
    <contour>
      <point x="999" y="1456" type="line"/>
      <point x="681" y="949" type="line"/>
      <point x="520" y="796" type="line"/>
      <point x="-10" y="-6" type="line"/>
      <point x="383" y="-6" type="line"/>
      <point x="771" y="579" type="line"/>
      <point x="923" y="720" type="line"/>
      <point x="1406" y="1456" type="line"/>
    </contour>
    <contour>
      <point x="44" y="1456" type="line"/>
      <point x="1017" y="-6" type="line"/>
      <point x="1431" y="-6" type="line"/>
      <point x="458" y="1456" type="line"/>
    </contour>
  </outline>
</glyph>
<glyph name="Y" format="1">
  <advance width="1344"/>
  <unicode hex="0059"/>
  <outline>
    <contour>
      <point x="676" y="1456" type="move" name="top"/>
    </contour>
    <contour>
      <point x="457" y="0" type="line"/>
      <point x="883" y="0" type="line"/>
      <point x="883" y="587" type="line"/>
      <point x="1363" y="1456" type="line"/>
      <point x="913" y="1456" type="line"/>
      <point x="669" y="987" type="line"/>
      <point x="435" y="1456" type="line"/>
      <point x="-19" y="1456" type="line"/>
      <point x="457" y="581" type="line"/>
    </contour>
  </outline>
</glyph>
<glyph name="Z" format="1">
  <advance width="1285"/>
  <unicode hex="005A"/>
  <outline>
    <contour>
      <point x="634" y="1456" type="move" name="top"/>
    </contour>
    <contour>
      <point x="586" y="0" type="move" name="bot"/>
    </contour>
    <contour>
      <point x="111" y="0" type="line"/>
      <point x="1203" y="0" type="line"/>
      <point x="1184" y="262" type="line"/>
      <point x="615" y="262" type="line"/>
      <point x="1164" y="1223" type="line"/>
      <point x="1166" y="1456" type="line"/>
      <point x="114" y="1456" type="line"/>
      <point x="135" y="1192" type="line"/>
      <point x="706" y="1192" type="line"/>
      <point x="111" y="213" type="line"/>
    </contour>
  </outline>
</glyph>
<glyph name="grave" format="1">
  <advance width="1115"/>
  <unicode hex="0060"/>
  <outline>
    <contour>
      <point x="580" y="1084" type="move" name="_top"/>
    </contour>
    <contour>
      <point x="428" y="1207" type="line"/>
      <point x="645" y="1207" type="line"/>
      <point x="477" y="1622" type="line"/>
      <point x="80" y="1622" type="line"/>
    </contour>
  </outline>
</glyph>
<glyph name="l" format="1">
  <advance width="790"/>
  <unicode hex="006C"/>
  <outline>
    <contour>
      <point x="321" y="1568" type="move" name="top"/>
    </contour>
    <contour>
      <point x="338" y="894" type="move" name="mid"/>
    </contour>
    <contour>
      <point x="729" y="-12" type="line"/>
      <point x="745" y="257" type="line"/>
      <point x="711" y="264" type="line" smooth="yes"/>
      <point x="569" y="288"/>
      <point x="539" y="375"/>
      <point x="539" y="708" type="curve" smooth="yes"/>
      <point x="539" y="1560" type="line"/>
      <point x="134" y="1540" type="line"/>
      <point x="134" y="719" type="line" smooth="yes"/>
      <point x="134" y="220"/>
      <point x="228" y="12"/>
      <point x="602" y="-6" type="curve" smooth="yes"/>
    </contour>
  </outline>
</glyph>
<glyph name="m" format="1">
  <advance width="1934"/>
  <unicode hex="006D"/>
  <outline>
    <contour>
      <point x="1096" y="1082" type="move" name="top"/>
    </contour>
    <contour>
      <point x="119" y="0" type="line"/>
      <point x="523" y="0" type="line"/>
      <point x="523" y="621" type="line"/>
      <point x="524" y="800"/>
      <point x="585" y="849"/>
      <point x="653" y="849" type="curve" smooth="yes"/>
      <point x="729" y="849"/>
      <point x="770" y="808"/>
      <point x="770" y="624" type="curve" smooth="yes"/>
      <point x="770" y="0" type="line"/>
      <point x="1174" y="0" type="line"/>
      <point x="1174" y="609"/>
      <point x="1174" y="679"/>
      <point x="1173" y="677" type="curve" smooth="yes"/>
      <point x="1171" y="762"/>
      <point x="1228" y="849"/>
      <point x="1303" y="849" type="curve" smooth="yes"/>
      <point x="1375" y="849"/>
      <point x="1420" y="815"/>
      <point x="1420" y="620" type="curve" smooth="yes"/>
      <point x="1420" y="0" type="line"/>
      <point x="1825" y="0" type="line"/>
      <point x="1825" y="670" type="line" smooth="yes"/>
      <point x="1825" y="935"/>
      <point x="1697" y="1101"/>
      <point x="1452" y="1101" type="curve" smooth="yes"/>
      <point x="1271" y="1101"/>
      <point x="1180" y="1008"/>
      <point x="1131" y="911" type="curve"/>
      <point x="1060" y="1064"/>
      <point x="926" y="1101"/>
      <point x="802" y="1101" type="curve" smooth="yes"/>
      <point x="629" y="1101"/>
      <point x="537" y="1010"/>
      <point x="486" y="913" type="curve"/>
      <point x="467" y="1082" type="line"/>
      <point x="119" y="1082" type="line"/>
    </contour>
  </outline>
</glyph>
<glyph name="n" format="1">
  <advance width="1283"/>
  <unicode hex="006E"/>
  <outline>
    <contour>
      <point x="704" y="1082" type="move" name="top"/>
    </contour>
    <contour>
      <point x="666" y="0" type="move" name="bot"/>
    </contour>
    <contour>
      <point x="123" y="0" type="line"/>
      <point x="527" y="0" type="line"/>
      <point x="527" y="624" type="line" smooth="yes"/>
      <point x="527" y="800"/>
      <point x="591" y="849"/>
      <point x="653" y="849" type="curve" smooth="yes"/>
      <point x="726" y="849"/>
      <point x="768" y="810"/>
      <point x="768" y="617" type="curve" smooth="yes"/>
      <point x="768" y="0" type="line"/>
      <point x="1173" y="0" type="line"/>
      <point x="1173" y="676" type="line" smooth="yes"/>
      <point x="1173" y="937"/>
      <point x="1044" y="1101"/>
      <point x="802" y="1101" type="curve" smooth="yes"/>
      <point x="635" y="1101"/>
      <point x="542" y="1022"/>
      <point x="489" y="930" type="curve"/>
      <point x="471" y="1082" type="line"/>
      <point x="123" y="1082" type="line"/>
    </contour>
  </outline>
</glyph>
<glyph name="p" format="1">
  <advance width="1287"/>
  <unicode hex="0070"/>
  <outline>
    <contour>
      <point x="659" y="1082" type="move" name="top"/>
    </contour>
    <contour>
      <point x="123" y="-481" type="line"/>
      <point x="520" y="-481" type="line"/>
      <point x="520" y="-53" type="line"/>
      <point x="516" y="105" type="line"/>
      <point x="563" y="41"/>
      <point x="646" y="-20"/>
      <point x="777" y="-20" type="curve" smooth="yes"/>
      <point x="1075" y="-20"/>
      <point x="1212" y="218"/>
      <point x="1212" y="552" type="curve" smooth="yes"/>
      <point x="1212" y="859"/>
      <point x="1070" y="1101"/>
      <point x="783" y="1101" type="curve" smooth="yes"/>
      <point x="630" y="1101"/>
      <point x="538" y="1026"/>
      <point x="490" y="927" type="curve"/>
      <point x="483" y="1082" type="line"/>
      <point x="123" y="1082" type="line"/>
    </contour>
    <contour>
      <point x="662" y="231" type="curve" smooth="yes"/>
      <point x="584" y="231"/>
      <point x="549" y="268"/>
      <point x="523" y="300" type="curve"/>
      <point x="523" y="793" type="line"/>
      <point x="559" y="828"/>
      <point x="617" y="849"/>
      <point x="675" y="849" type="curve" smooth="yes"/>
      <point x="735" y="849"/>
      <point x="810" y="809"/>
      <point x="810" y="552" type="curve" smooth="yes"/>
      <point x="810" y="259"/>
      <point x="721" y="231"/>
    </contour>
  </outline>
</glyph>
<glyph name="q" format="1">
  <advance width="1288"/>
  <unicode hex="0071"/>
  <outline>
    <contour>
      <point x="768" y="-481" type="line"/>
      <point x="1165" y="-481" type="line"/>
      <point x="1165" y="1082" type="line"/>
      <point x="805" y="1082" type="line"/>
      <point x="798" y="916" type="line"/>
      <point x="750" y="1021"/>
      <point x="658" y="1101"/>
      <point x="500" y="1101" type="curve" smooth="yes"/>
      <point x="212" y="1101"/>
      <point x="77" y="859"/>
      <point x="77" y="551" type="curve" smooth="yes"/>
      <point x="77" y="219"/>
      <point x="215" y="-20"/>
      <point x="509" y="-20" type="curve" smooth="yes"/>
      <point x="643" y="-20"/>
      <point x="726" y="40"/>
      <point x="772" y="102" type="curve"/>
      <point x="768" y="-58" type="line"/>
    </contour>
    <contour>
      <point x="625" y="231" type="curve" smooth="yes"/>
      <point x="566" y="231"/>
      <point x="478" y="259"/>
      <point x="478" y="551" type="curve" smooth="yes"/>
      <point x="478" y="807"/>
      <point x="549" y="849"/>
      <point x="610" y="849" type="curve" smooth="yes"/>
      <point x="681" y="849"/>
      <point x="738" y="813"/>
      <point x="766" y="758" type="curve"/>
      <point x="766" y="302" type="line"/>
      <point x="737" y="268"/>
      <point x="703" y="231"/>
    </contour>
  </outline>
</glyph>
<glyph name="s" format="1">
  <advance width="1011"/>
  <unicode hex="0073"/>
  <outline>
    <contour>
      <point x="484" y="1081" type="move" name="top"/>
    </contour>
    <contour>
      <point x="518" y="0" type="move" name="bot"/>
    </contour>
    <contour>
      <point x="219" y="346" type="line"/>
      <point x="55" y="193" type="line"/>
      <point x="169" y="46"/>
      <point x="326" y="-20"/>
      <point x="545" y="-20" type="curve" smooth="yes"/>
      <point x="770" y="-20"/>
      <point x="972" y="97"/>
      <point x="970" y="316" type="curve" smooth="yes"/>
      <point x="968" y="446"/>
      <point x="939" y="536"/>
      <point x="715" y="633" type="curve" smooth="yes"/>
      <point x="566" y="698" type="line" smooth="yes"/>
      <point x="479" y="735"/>
      <point x="468" y="765"/>
      <point x="471" y="799" type="curve" smooth="yes"/>
      <point x="475" y="839"/>
      <point x="516" y="864"/>
      <point x="573" y="864" type="curve" smooth="yes"/>
      <point x="637" y="863"/>
      <point x="725" y="836"/>
      <point x="784" y="763" type="curve"/>
      <point x="798" y="763" type="line"/>
      <point x="953" y="906" type="line"/>
      <point x="866" y="1052"/>
      <point x="699" y="1102"/>
      <point x="517" y="1102" type="curve" smooth="yes"/>
      <point x="262" y="1102"/>
      <point x="98" y="980"/>
      <point x="95" y="788" type="curve" smooth="yes"/>
      <point x="92" y="622"/>
      <point x="183" y="529"/>
      <point x="388" y="451" type="curve" smooth="yes"/>
      <point x="497" y="411" type="line" smooth="yes"/>
      <point x="609" y="369"/>
      <point x="631" y="337"/>
      <point x="629" y="298" type="curve" smooth="yes"/>
      <point x="628" y="254"/>
      <point x="600" y="213"/>
      <point x="527" y="213" type="curve" smooth="yes"/>
      <point x="449" y="213"/>
      <point x="340" y="231"/>
      <point x="249" y="346" type="curve"/>
    </contour>
  </outline>
</glyph>
<glyph name="t" format="1">
  <advance width="921"/>
  <unicode hex="0074"/>
  <outline>
    <contour>
      <point x="451" y="1309" type="move" name="top"/>
    </contour>
    <contour>
      <point x="525" y="0" type="move" name="bot"/>
    </contour>
    <contour>
      <point x="388" y="739" type="move" name="mid"/>
    </contour>
    <contour>
      <point x="649" y="-10" type="curve" smooth="yes"/>
      <point x="892" y="-1" type="line"/>
      <point x="903" y="256" type="line"/>
      <point x="730" y="263" type="line" smooth="yes"/>
      <point x="619" y="268"/>
      <point x="583" y="322"/>
      <point x="583" y="428" type="curve" smooth="yes"/>
      <point x="583" y="853" type="line"/>
      <point x="871" y="853" type="line"/>
      <point x="871" y="1082" type="line"/>
      <point x="583" y="1082" type="line"/>
      <point x="583" y="1428" type="line"/>
      <point x="214" y="1399" type="line"/>
      <point x="197" y="1086" type="line"/>
      <point x="34" y="1063" type="line"/>
      <point x="25" y="853" type="line"/>
      <point x="186" y="853" type="line"/>
      <point x="186" y="443" type="line" smooth="yes"/>
      <point x="186" y="155"/>
      <point x="240" y="-10"/>
    </contour>
  </outline>
</glyph>
<glyph name="u" format="1">
  <advance width="1263"/>
  <unicode hex="0075"/>
  <outline>
    <contour>
      <point x="633" y="1082" type="move" name="top"/>
    </contour>
    <contour>
      <point x="985" y="0" type="move" name="ogonek"/>
    </contour>
    <contour>
      <point x="638" y="0" type="move" name="bot"/>
    </contour>
    <contour>
      <point x="488" y="-20" type="curve" smooth="yes"/>
      <point x="698" y="-20"/>
      <point x="794" y="108"/>
      <point x="840" y="227" type="curve"/>
      <point x="800" y="239" type="line"/>
      <point x="826" y="0" type="line"/>
      <point x="1136" y="0" type="line"/>
      <point x="1136" y="1082" type="line"/>
      <point x="776" y="1082" type="line"/>
      <point x="776" y="235" type="line"/>
      <point x="796" y="325" type="line"/>
      <point x="767" y="280"/>
      <point x="713" y="209"/>
      <point x="614" y="209" type="curve" smooth="yes"/>
      <point x="522" y="209"/>
      <point x="477" y="264"/>
      <point x="477" y="454" type="curve" smooth="yes"/>
      <point x="477" y="1082" type="line"/>
      <point x="117" y="1082" type="line"/>
      <point x="117" y="409" type="line" smooth="yes"/>
      <point x="117" y="142"/>
      <point x="245" y="-20"/>
    </contour>
  </outline>
</glyph>
<glyph name="v" format="1">
  <advance width="1106"/>
  <unicode hex="0076"/>
  <outline>
    <contour>
      <point x="358" y="0" type="line"/>
      <point x="758" y="0" type="line"/>
      <point x="1113" y="1082" type="line"/>
      <point x="709" y="1082" type="line"/>
      <point x="706" y="1070"/>
      <point x="579" y="450"/>
      <point x="575" y="439" type="curve"/>
      <point x="523" y="657"/>
      <point x="462" y="868"/>
      <point x="405" y="1082" type="curve"/>
      <point x="-8" y="1082" type="line"/>
    </contour>
  </outline>
</glyph>
<glyph name="w" format="1">
  <advance width="1645"/>
  <unicode hex="0077"/>
  <outline>
    <contour>
      <point x="843" y="1082" type="move" name="top"/>
    </contour>
    <contour>
      <point x="279" y="-7" type="line"/>
      <point x="637" y="-7" type="line"/>
      <point x="839" y="671" type="line"/>
      <point x="976" y="-7" type="line"/>
      <point x="1354" y="-7" type="line"/>
      <point x="1633" y="1082" type="line"/>
      <point x="1295" y="1082" type="line"/>
      <point x="1169" y="398" type="line"/>
      <point x="1021" y="1082" type="line"/>
      <point x="670" y="1082" type="line"/>
      <point x="488" y="377" type="line"/>
      <point x="383" y="1082" type="line"/>
      <point x="12" y="1082" type="line"/>
    </contour>
  </outline>
</glyph>
<glyph name="x" format="1">
  <advance width="1098"/>
  <unicode hex="0078"/>
  <outline>
    <contour>
      <point x="752" y="1082" type="line"/>
      <point x="501" y="696" type="line"/>
      <point x="406" y="601" type="line"/>
      <point x="-4" y="-6" type="line"/>
      <point x="333" y="-6" type="line"/>
      <point x="632" y="418" type="line"/>
      <point x="719" y="505" type="line"/>
      <point x="1084" y="1082" type="line"/>
    </contour>
    <contour>
      <point x="14" y="1082" type="line"/>
      <point x="726" y="-6" type="line"/>
      <point x="1107" y="-6" type="line"/>
      <point x="390" y="1082" type="line"/>
    </contour>
  </outline>
</glyph>
<glyph name="z" format="1">
  <advance width="944"/>
  <unicode hex="007A"/>
  <outline>
    <contour>
      <point x="467" y="1082" type="move" name="top"/>
    </contour>
    <contour>
      <point x="515" y="0" type="move" name="bot"/>
    </contour>
    <contour>
      <point x="57" y="0" type="line"/>
      <point x="925" y="0" type="line"/>
      <point x="935" y="242" type="line"/>
      <point x="503" y="242" type="line"/>
      <point x="902" y="910" type="line"/>
      <point x="902" y="1082" type="line"/>
      <point x="59" y="1082" type="line"/>
      <point x="50" y="850" type="line"/>
      <point x="477" y="850" type="line"/>
      <point x="57" y="157" type="line"/>
    </contour>
  </outline>
</glyph>
<glyph name="asciitilde" format="1">
  <advance width="1192"/>
  <unicode hex="007E"/>
  <outline>
    <contour>
      <point x="192" y="465" type="line"/>
      <point x="228" y="534"/>
      <point x="284" y="599"/>
      <point x="367" y="599" type="curve" smooth="yes"/>
      <point x="436" y="599"/>
      <point x="486" y="577"/>
      <point x="545" y="548" type="curve" smooth="yes"/>
      <point x="639" y="504"/>
      <point x="712" y="475"/>
      <point x="814" y="475" type="curve" smooth="yes"/>
      <point x="966" y="475"/>
      <point x="1106" y="577"/>
      <point x="1157" y="671" type="curve"/>
      <point x="1059" y="835" type="line"/>
      <point x="964" y="742"/>
      <point x="905" y="714"/>
      <point x="835" y="714" type="curve" smooth="yes"/>
      <point x="785" y="714"/>
      <point x="722" y="732"/>
      <point x="639" y="771" type="curve" smooth="yes"/>
      <point x="562" y="804"/>
      <point x="465" y="834"/>
      <point x="379" y="834" type="curve" smooth="yes"/>
      <point x="223" y="834"/>
      <point x="137" y="743"/>
      <point x="85" y="639" type="curve"/>
    </contour>
  </outline>
</glyph>
<glyph name="sterling" format="1">
  <advance width="1239"/>
  <unicode hex="00A3"/>
  <outline>
    <contour>
      <point x="110" y="0" type="line"/>
      <point x="1158" y="0" type="line"/>
      <point x="1161" y="277" type="line"/>
      <point x="682" y="277" type="line"/>
      <point x="682" y="662" type="line"/>
      <point x="972" y="662" type="line"/>
      <point x="972" y="886" type="line"/>
      <point x="682" y="886" type="line"/>
      <point x="682" y="1062" type="line" smooth="yes"/>
      <point x="682" y="1190"/>
      <point x="744" y="1254"/>
      <point x="856" y="1254" type="curve" smooth="yes"/>
      <point x="902" y="1254"/>
      <point x="967" y="1240"/>
      <point x="1039" y="1210" type="curve"/>
      <point x="1061" y="1210" type="line"/>
      <point x="1186" y="1446" type="line"/>
      <point x="1160" y="1464"/>
      <point x="998" y="1570"/>
      <point x="761" y="1570" type="curve" smooth="yes"/>
      <point x="412" y="1570"/>
      <point x="279" y="1361"/>
      <point x="279" y="987" type="curve" smooth="yes"/>
      <point x="279" y="886" type="line"/>
      <point x="88" y="886" type="line"/>
      <point x="88" y="662" type="line"/>
      <point x="279" y="662" type="line"/>
      <point x="279" y="275" type="line"/>
      <point x="100" y="252" type="line"/>
    </contour>
  </outline>
</glyph>
<glyph name="yen" format="1">
  <advance width="1344"/>
  <unicode hex="00A5"/>
  <outline>
    <contour>
      <point x="166" y="235" type="line"/>
      <point x="1149" y="235" type="line"/>
      <point x="1149" y="384" type="line"/>
      <point x="166" y="384" type="line"/>
    </contour>
    <contour>
      <point x="166" y="540" type="line"/>
      <point x="1149" y="540" type="line"/>
      <point x="1149" y="689" type="line"/>
      <point x="166" y="689" type="line"/>
    </contour>
    <component base="Y"/>
  </outline>
</glyph>
<glyph name="brokenbar" format="1">
  <advance width="788"/>
  <unicode hex="00A6"/>
  <outline>
    <contour>
      <point x="249" y="-431" type="line"/>
      <point x="498" y="-431" type="line"/>
      <point x="498" y="238" type="line"/>
      <point x="249" y="238" type="line"/>
    </contour>
    <contour>
      <point x="249" y="737" type="line"/>
      <point x="498" y="737" type="line"/>
      <point x="498" y="1408" type="line"/>
      <point x="249" y="1408" type="line"/>
    </contour>
  </outline>
</glyph>
<glyph name="section" format="1">
  <advance width="1011"/>
  <unicode hex="00A7"/>
  <outline>
    <contour>
      <point x="519" y="-20" type="curve" smooth="yes"/>
      <point x="739" y="-7"/>
      <point x="891" y="86"/>
      <point x="891" y="367" type="curve" smooth="yes"/>
      <point x="891" y="450"/>
      <point x="852" y="530"/>
      <point x="772" y="593" type="curve"/>
      <point x="843" y="652"/>
      <point x="903" y="718"/>
      <point x="903" y="832" type="curve" smooth="yes"/>
      <point x="903" y="937"/>
      <point x="849" y="1019"/>
      <point x="693" y="1092" type="curve" smooth="yes"/>
      <point x="471" y="1195"/>
      <point x="462" y="1221"/>
      <point x="462" y="1259" type="curve" smooth="yes"/>
      <point x="462" y="1303"/>
      <point x="515" y="1317"/>
      <point x="573" y="1317" type="curve" smooth="yes"/>
      <point x="649" y="1317"/>
      <point x="748" y="1295"/>
      <point x="814" y="1257" type="curve"/>
      <point x="880" y="1454" type="line"/>
      <point x="773" y="1529"/>
      <point x="636" y="1564"/>
      <point x="548" y="1564" type="curve" smooth="yes"/>
      <point x="392" y="1564"/>
      <point x="146" y="1516"/>
      <point x="146" y="1239" type="curve" smooth="yes"/>
      <point x="146" y="1119"/>
      <point x="207" y="1034"/>
      <point x="323" y="956" type="curve"/>
      <point x="237" y="893"/>
      <point x="162" y="815"/>
      <point x="162" y="723" type="curve" smooth="yes"/>
      <point x="162" y="592"/>
      <point x="264" y="536"/>
      <point x="429" y="459" type="curve" smooth="yes"/>
      <point x="565" y="392"/>
      <point x="595" y="361"/>
      <point x="595" y="320" type="curve" smooth="yes"/>
      <point x="595" y="261"/>
      <point x="555" y="230"/>
      <point x="485" y="230" type="curve" smooth="yes"/>
      <point x="370" y="230"/>
      <point x="218" y="291"/>
      <point x="167" y="326" type="curve"/>
      <point x="167" y="67" type="line"/>
      <point x="275" y="6"/>
      <point x="463" y="-26"/>
    </contour>
    <contour>
      <point x="642" y="664" type="curve"/>
      <point x="641" y="665"/>
      <point x="577" y="695"/>
      <point x="595" y="690" type="curve" smooth="yes"/>
      <point x="438" y="767"/>
      <point x="393" y="786"/>
      <point x="393" y="824" type="curve" smooth="yes"/>
      <point x="393" y="857"/>
      <point x="423" y="886"/>
      <point x="437" y="891" type="curve"/>
      <point x="437" y="891"/>
      <point x="542" y="849"/>
      <point x="586" y="823" type="curve" smooth="yes"/>
      <point x="651" y="785"/>
      <point x="674" y="749"/>
      <point x="674" y="720" type="curve" smooth="yes"/>
      <point x="674" y="698"/>
      <point x="661" y="681"/>
    </contour>
  </outline>
</glyph>
<glyph name="dieresis" format="1">
  <advance width="1146"/>
  <unicode hex="00A8"/>
  <outline>
    <contour>
      <point x="566" y="1082" type="move" name="_top"/>
    </contour>
    <contour>
      <point x="295" y="1206" type="curve" smooth="yes"/>
      <point x="397" y="1206"/>
      <point x="463" y="1271"/>
      <point x="463" y="1378" type="curve" smooth="yes"/>
      <point x="463" y="1486"/>
      <point x="397" y="1552"/>
      <point x="295" y="1552" type="curve" smooth="yes"/>
      <point x="190" y="1552"/>
      <point x="123" y="1486"/>
      <point x="123" y="1378" type="curve" smooth="yes"/>
      <point x="123" y="1271"/>
      <point x="190" y="1206"/>
    </contour>
    <contour>
      <point x="834" y="1206" type="curve" smooth="yes"/>
      <point x="938" y="1206"/>
      <point x="1004" y="1271"/>
      <point x="1004" y="1378" type="curve" smooth="yes"/>
      <point x="1004" y="1486"/>
      <point x="938" y="1552"/>
      <point x="834" y="1552" type="curve" smooth="yes"/>
      <point x="730" y="1552"/>
      <point x="661" y="1486"/>
      <point x="661" y="1378" type="curve" smooth="yes"/>
      <point x="661" y="1271"/>
      <point x="730" y="1206"/>
    </contour>
  </outline>
</glyph>
<glyph name="ordfeminine" format="1">
  <advance width="1172"/>
  <unicode hex="00AA"/>
  <outline>
    <contour>
      <point x="404" y="595" type="curve" smooth="yes"/>
      <point x="549" y="595"/>
      <point x="633" y="650"/>
      <point x="693" y="710" type="curve"/>
      <point x="730" y="609" type="line"/>
      <point x="982" y="609" type="line"/>
      <point x="982" y="1142" type="line" smooth="yes"/>
      <point x="982" y="1439"/>
      <point x="801" y="1560"/>
      <point x="573" y="1560" type="curve" smooth="yes"/>
      <point x="443" y="1560"/>
      <point x="296" y="1520"/>
      <point x="152" y="1454" type="curve"/>
      <point x="211" y="1253" type="line"/>
      <point x="321" y="1291"/>
      <point x="426" y="1322"/>
      <point x="507" y="1322" type="curve" smooth="yes"/>
      <point x="587" y="1322"/>
      <point x="643" y="1292"/>
      <point x="643" y="1210" type="curve" smooth="yes"/>
      <point x="643" y="1157" type="line"/>
      <point x="534" y="1158" type="line" smooth="yes"/>
      <point x="366" y="1158"/>
      <point x="117" y="1108"/>
      <point x="117" y="875" type="curve" smooth="yes"/>
      <point x="117" y="691"/>
      <point x="235" y="595"/>
    </contour>
    <contour>
      <point x="525" y="775" type="curve" smooth="yes"/>
      <point x="474" y="775"/>
      <point x="424" y="807"/>
      <point x="424" y="881" type="curve" smooth="yes"/>
      <point x="424" y="986"/>
      <point x="529" y="1009"/>
      <point x="616" y="1009" type="curve" smooth="yes"/>
      <point x="641" y="1009" type="line"/>
      <point x="641" y="821" type="line"/>
      <point x="622" y="802"/>
      <point x="580" y="775"/>
    </contour>
  </outline>
</glyph>
<glyph name="guillemotleft" format="1">
  <advance width="1301"/>
  <unicode hex="00AB"/>
  <outline>
    <contour>
      <point x="393" y="125" type="line"/>
      <point x="693" y="125" type="line"/>
      <point x="450" y="580" type="line"/>
      <point x="697" y="1035" type="line"/>
      <point x="394" y="1035" type="line"/>
      <point x="134" y="577" type="line"/>
    </contour>
    <contour>
      <point x="881" y="125" type="line"/>
      <point x="1182" y="125" type="line"/>
      <point x="939" y="580" type="line"/>
      <point x="1184" y="1035" type="line"/>
      <point x="882" y="1035" type="line"/>
      <point x="622" y="577" type="line"/>
    </contour>
  </outline>
</glyph>
<glyph name="registered" format="1">
  <advance width="1914"/>
  <unicode hex="00AE"/>
  <outline>
    <contour>
      <point x="595" y="330" type="line"/>
      <point x="782" y="330" type="line"/>
      <point x="782" y="705" type="line"/>
      <point x="830" y="705" type="line"/>
      <point x="828" y="705"/>
      <point x="1063" y="330"/>
      <point x="1063" y="330" type="curve"/>
      <point x="1283" y="330" type="line"/>
      <point x="1283" y="330"/>
      <point x="1029" y="713"/>
      <point x="1028" y="714" type="curve"/>
      <point x="1185" y="761"/>
      <point x="1233" y="823"/>
      <point x="1233" y="938" type="curve" smooth="yes"/>
      <point x="1233" y="1154"/>
      <point x="1071" y="1182"/>
      <point x="870" y="1182" type="curve" smooth="yes"/>
      <point x="595" y="1182" type="line"/>
    </contour>
    <contour>
      <point x="781" y="824" type="line"/>
      <point x="781" y="1043" type="line"/>
      <point x="854" y="1043"/>
      <point x="886" y="1044"/>
      <point x="908" y="1044" type="curve" smooth="yes"/>
      <point x="1007" y="1044"/>
      <point x="1046" y="1033"/>
      <point x="1046" y="931" type="curve" smooth="yes"/>
      <point x="1046" y="836"/>
      <point x="975" y="824"/>
      <point x="834" y="824" type="curve" smooth="yes"/>
    </contour>
    <contour>
      <point x="898" y="111" type="curve" smooth="yes"/>
      <point x="558" y="111"/>
      <point x="294" y="395"/>
      <point x="294" y="729" type="curve" smooth="yes"/>
      <point x="294" y="1063"/>
      <point x="558" y="1345"/>
      <point x="898" y="1345" type="curve" smooth="yes"/>
      <point x="1237" y="1345"/>
      <point x="1501" y="1063"/>
      <point x="1501" y="729" type="curve" smooth="yes"/>
      <point x="1501" y="395"/>
      <point x="1237" y="111"/>
    </contour>
    <contour>
      <point x="898" y="-62" type="curve" smooth="yes"/>
      <point x="1344" y="-62"/>
      <point x="1691" y="298"/>
      <point x="1691" y="729" type="curve" smooth="yes"/>
      <point x="1691" y="1159"/>
      <point x="1344" y="1518"/>
      <point x="898" y="1518" type="curve" smooth="yes"/>
      <point x="451" y="1518"/>
      <point x="104" y="1159"/>
      <point x="104" y="729" type="curve" smooth="yes"/>
      <point x="104" y="298"/>
      <point x="451" y="-62"/>
    </contour>
  </outline>
</glyph>
<glyph name="macron" format="1">
  <advance width="1012"/>
  <unicode hex="00AF"/>
  <outline>
    <contour>
      <point x="505" y="1084" type="move" name="_top"/>
    </contour>
    <contour>
      <point x="497" y="1325" type="move" name="_mid"/>
    </contour>
    <contour>
      <point x="133" y="1250" type="line"/>
      <point x="880" y="1250" type="line"/>
      <point x="880" y="1416" type="line"/>
      <point x="133" y="1416" type="line"/>
    </contour>
  </outline>
</glyph>
<glyph name="uni00B3" format="1">
  <advance width="885"/>
  <unicode hex="00B3"/>
  <outline>
    <contour>
      <point x="429" y="566" type="curve" smooth="yes"/>
      <point x="621" y="566"/>
      <point x="789" y="656"/>
      <point x="789" y="845" type="curve" smooth="yes"/>
      <point x="789" y="939"/>
      <point x="738" y="1036"/>
      <point x="636" y="1054" type="curve"/>
      <point x="743" y="1073"/>
      <point x="768" y="1162"/>
      <point x="770" y="1238" type="curve" smooth="yes"/>
      <point x="770" y="1407"/>
      <point x="633" y="1470"/>
      <point x="478" y="1470" type="curve" smooth="yes"/>
      <point x="365" y="1470"/>
      <point x="245" y="1438"/>
      <point x="153" y="1386" type="curve"/>
      <point x="214" y="1252" type="line"/>
      <point x="290" y="1291"/>
      <point x="373" y="1311"/>
      <point x="436" y="1311" type="curve" smooth="yes"/>
      <point x="518" y="1311"/>
      <point x="580" y="1282"/>
      <point x="580" y="1212" type="curve" smooth="yes"/>
      <point x="580" y="1159"/>
      <point x="573" y="1127"/>
      <point x="436" y="1127" type="curve" smooth="yes"/>
      <point x="311" y="1127" type="line"/>
      <point x="311" y="971" type="line"/>
      <point x="433" y="973" type="line"/>
      <point x="561" y="973"/>
      <point x="601" y="924"/>
      <point x="601" y="855" type="curve" smooth="yes"/>
      <point x="601" y="764"/>
      <point x="516" y="726"/>
      <point x="421" y="726" type="curve" smooth="yes"/>
      <point x="347" y="726"/>
      <point x="262" y="751"/>
      <point x="207" y="794" type="curve"/>
      <point x="141" y="634" type="line"/>
      <point x="230" y="589"/>
      <point x="333" y="566"/>
    </contour>
  </outline>
</glyph>
<glyph name="uni00B5" format="1">
  <advance width="1244"/>
  <unicode hex="00B5"/>
  <outline>
    <contour>
      <point x="106" y="602" type="line"/>
      <point x="106" y="-328" type="line"/>
      <point x="466" y="-328" type="line"/>
      <point x="466" y="602" type="line"/>
    </contour>
    <component base="u"/>
  </outline>
</glyph>
<glyph name="paragraph" format="1">
  <advance width="1271"/>
  <unicode hex="00B6"/>
  <outline>
    <contour>
      <point x="521" y="-267" type="line"/>
      <point x="712" y="-267" type="line"/>
      <point x="712" y="1297" type="line"/>
      <point x="920" y="1297" type="line"/>
      <point x="920" y="-267" type="line"/>
      <point x="1112" y="-267" type="line"/>
      <point x="1112" y="1456" type="line"/>
      <point x="687" y="1456" type="line" smooth="yes"/>
      <point x="251" y="1456"/>
      <point x="92" y="1341"/>
      <point x="92" y="1041" type="curve" smooth="yes"/>
      <point x="92" y="840"/>
      <point x="233" y="661"/>
      <point x="521" y="661" type="curve"/>
    </contour>
  </outline>
</glyph>
<glyph name="cedilla" format="1">
  <advance width="777"/>
  <unicode hex="00B8"/>
  <outline>
    <contour>
      <point x="543" y="25" type="move" name="_bot"/>
    </contour>
    <contour>
      <point x="472" y="-423" type="curve" smooth="yes"/>
      <point x="613" y="-423"/>
      <point x="728" y="-345"/>
      <point x="728" y="-208" type="curve" smooth="yes"/>
      <point x="728" y="-97"/>
      <point x="663" y="-35"/>
      <point x="562" y="-35" type="curve" smooth="yes"/>
      <point x="525" y="-35"/>
      <point x="484" y="-43"/>
      <point x="439" y="-60" type="curve"/>
      <point x="440" y="-137" type="line"/>
      <point x="449" y="-136"/>
      <point x="457" y="-136"/>
      <point x="466" y="-136" type="curve" smooth="yes"/>
      <point x="521" y="-136"/>
      <point x="548" y="-155"/>
      <point x="549" y="-198" type="curve" smooth="yes"/>
      <point x="549" y="-234"/>
      <point x="521" y="-274"/>
      <point x="446" y="-274" type="curve" smooth="yes"/>
      <point x="418" y="-274"/>
      <point x="384" y="-267"/>
      <point x="344" y="-255" type="curve"/>
      <point x="298" y="-386" type="line"/>
      <point x="357" y="-411"/>
      <point x="417" y="-423"/>
    </contour>
  </outline>
</glyph>
<glyph name="guillemotright" format="1">
  <advance width="1301"/>
  <unicode hex="00BB"/>
  <outline>
    <contour>
      <point x="420" y="125" type="line"/>
      <point x="678" y="577" type="line"/>
      <point x="419" y="1035" type="line"/>
      <point x="117" y="1035" type="line"/>
      <point x="361" y="580" type="line"/>
      <point x="119" y="125" type="line"/>
    </contour>
    <contour>
      <point x="908" y="125" type="line"/>
      <point x="1167" y="577" type="line"/>
      <point x="906" y="1035" type="line"/>
      <point x="603" y="1035" type="line"/>
      <point x="851" y="580" type="line"/>
      <point x="607" y="125" type="line"/>
    </contour>
  </outline>
</glyph>
<glyph name="multiply" format="1">
  <advance width="994"/>
  <unicode hex="00D7"/>
  <outline>
    <contour>
      <point x="925" y="225" type="line"/>
      <point x="925" y="225"/>
      <point x="754" y="395"/>
      <point x="670" y="483" type="curve"/>
      <point x="924" y="754" type="line"/>
      <point x="768" y="918" type="line"/>
      <point x="506" y="652" type="line"/>
      <point x="241" y="917" type="line"/>
      <point x="87" y="752" type="line"/>
      <point x="342" y="483" type="line"/>
      <point x="91" y="224" type="line"/>
      <point x="245" y="50" type="line"/>
      <point x="506" y="313" type="line"/>
      <point x="765" y="53" type="line"/>
    </contour>
  </outline>
</glyph>
<glyph name="germandbls" format="1">
  <advance width="1351"/>
  <unicode hex="00DF"/>
  <outline>
    <contour>
      <point x="927" y="-20" type="curve" smooth="yes"/>
      <point x="1210" y="-20"/>
      <point x="1334" y="107"/>
      <point x="1334" y="334" type="curve" smooth="yes"/>
      <point x="1334" y="708"/>
      <point x="958" y="755"/>
      <point x="958" y="792" type="curve" smooth="yes"/>
      <point x="958" y="828"/>
      <point x="1178" y="902"/>
      <point x="1178" y="1137" type="curve" smooth="yes"/>
      <point x="1178" y="1404"/>
      <point x="938" y="1531"/>
      <point x="653" y="1531" type="curve" smooth="yes"/>
      <point x="348" y="1531"/>
      <point x="109" y="1351"/>
      <point x="109" y="1032" type="curve" smooth="yes"/>
      <point x="109" y="-1" type="line"/>
      <point x="514" y="-1" type="line"/>
      <point x="514" y="980" type="line" smooth="yes"/>
      <point x="514" y="1128"/>
      <point x="555" y="1256"/>
      <point x="678" y="1256" type="curve" smooth="yes"/>
      <point x="751" y="1256"/>
      <point x="809" y="1224"/>
      <point x="809" y="1133" type="curve" smooth="yes"/>
      <point x="809" y="978"/>
      <point x="649" y="933"/>
      <point x="649" y="758" type="curve" smooth="yes"/>
      <point x="649" y="567"/>
      <point x="901" y="571"/>
      <point x="901" y="345" type="curve" smooth="yes"/>
      <point x="901" y="266"/>
      <point x="854" y="247"/>
      <point x="798" y="247" type="curve" smooth="yes"/>
      <point x="747" y="247"/>
      <point x="681" y="270"/>
      <point x="649" y="288" type="curve"/>
      <point x="579" y="49" type="line"/>
      <point x="717" y="-3"/>
      <point x="838" y="-20"/>
    </contour>
  </outline>
</glyph>
<glyph name="eth" format="1">
  <advance width="1232"/>
  <unicode hex="00F0"/>
  <outline>
    <contour>
      <point x="625" y="-25" type="curve" smooth="yes"/>
      <point x="978" y="-25"/>
      <point x="1149" y="180"/>
      <point x="1159" y="498" type="curve" smooth="yes"/>
      <point x="1165" y="677"/>
      <point x="1114" y="818"/>
      <point x="1032" y="939" type="curve" smooth="yes"/>
      <point x="950" y="1062"/>
      <point x="837" y="1167"/>
      <point x="719" y="1281" type="curve"/>
      <point x="952" y="1369" type="line"/>
      <point x="827" y="1576" type="line"/>
      <point x="533" y="1459" type="line"/>
      <point x="422" y="1561" type="line"/>
      <point x="62" y="1561" type="line"/>
      <point x="280" y="1356" type="line"/>
      <point x="114" y="1289" type="line"/>
      <point x="218" y="1085" type="line"/>
      <point x="455" y="1174" type="line"/>
      <point x="532" y="1106"/>
      <point x="632" y="1002"/>
      <point x="687" y="917" type="curve"/>
      <point x="648" y="936"/>
      <point x="553" y="942"/>
      <point x="547" y="942" type="curve" smooth="yes"/>
      <point x="253" y="942"/>
      <point x="80" y="754"/>
      <point x="80" y="471" type="curve" smooth="yes"/>
      <point x="80" y="168"/>
      <point x="312" y="-25"/>
    </contour>
    <contour>
      <point x="629" y="249" type="curve" smooth="yes"/>
      <point x="500" y="249"/>
      <point x="421" y="335"/>
      <point x="421" y="481" type="curve" smooth="yes"/>
      <point x="421" y="622"/>
      <point x="491" y="713"/>
      <point x="624" y="713" type="curve" smooth="yes"/>
      <point x="754" y="713"/>
      <point x="830" y="617"/>
      <point x="830" y="472" type="curve" smooth="yes"/>
      <point x="830" y="333"/>
      <point x="755" y="249"/>
    </contour>
  </outline>
</glyph>
<glyph name="thorn" format="1">
  <advance width="1383"/>
  <unicode hex="00FE"/>
  <outline>
    <contour>
      <point x="220" y="-418" type="line"/>
      <point x="619" y="-418" type="line"/>
      <point x="619" y="94" type="line"/>
      <point x="668" y="34"/>
      <point x="749" y="-20"/>
      <point x="873" y="-20" type="curve" smooth="yes"/>
      <point x="1170" y="-20"/>
      <point x="1312" y="218"/>
      <point x="1312" y="551" type="curve" smooth="yes"/>
      <point x="1312" y="859"/>
      <point x="1170" y="1101"/>
      <point x="885" y="1101" type="curve" smooth="yes"/>
      <point x="750" y="1101"/>
      <point x="662" y="1046"/>
      <point x="609" y="965" type="curve"/>
      <point x="619" y="1159" type="line"/>
      <point x="619" y="1560" type="line"/>
      <point x="220" y="1540" type="line"/>
    </contour>
    <contour>
      <point x="772" y="231" type="curve" smooth="yes"/>
      <point x="672" y="231"/>
      <point x="645" y="268"/>
      <point x="619" y="300" type="curve"/>
      <point x="619" y="567" type="line" smooth="yes"/>
      <point x="619" y="814"/>
      <point x="716" y="849"/>
      <point x="784" y="849" type="curve" smooth="yes"/>
      <point x="844" y="849"/>
      <point x="906" y="809"/>
      <point x="906" y="552" type="curve" smooth="yes"/>
      <point x="906" y="304"/>
      <point x="832" y="231"/>
    </contour>
  </outline>
</glyph>
<glyph name="dotlessi" format="1">
  <advance width="637"/>
  <unicode hex="0131"/>
  <outline>
    <contour>
      <point x="333" y="1082" type="move" name="top"/>
    </contour>
    <contour>
      <point x="357" y="0" type="move" name="ogonek"/>
    </contour>
    <contour>
      <point x="121" y="0" type="line"/>
      <point x="525" y="0" type="line"/>
      <point x="525" y="1082" type="line"/>
      <point x="121" y="1082" type="line"/>
    </contour>
  </outline>
</glyph>
<glyph name="OE" format="1">
  <advance width="2202"/>
  <unicode hex="0152"/>
  <outline>
    <contour>
      <point x="736" y="-15" type="curve" smooth="yes"/>
      <point x="885" y="-15"/>
      <point x="971" y="-2"/>
      <point x="1056" y="31" type="curve"/>
      <point x="1056" y="0" type="line"/>
      <point x="2054" y="0" type="line"/>
      <point x="2058" y="274" type="line"/>
      <point x="1382" y="274" type="line"/>
      <point x="1382" y="611" type="line"/>
      <point x="2005" y="611" type="line"/>
      <point x="2005" y="876" type="line"/>
      <point x="1382" y="876" type="line"/>
      <point x="1382" y="1192" type="line"/>
      <point x="2016" y="1192" type="line"/>
      <point x="2037" y="1456" type="line"/>
      <point x="1056" y="1456" type="line"/>
      <point x="1056" y="1437" type="line"/>
      <point x="971" y="1471"/>
      <point x="887" y="1485"/>
      <point x="735" y="1485" type="curve" smooth="yes"/>
      <point x="314" y="1485"/>
      <point x="55" y="1224"/>
      <point x="55" y="730" type="curve" smooth="yes"/>
      <point x="55" y="243"/>
      <point x="316" y="-15"/>
    </contour>
    <contour>
      <point x="737" y="272" type="curve" smooth="yes"/>
      <point x="524" y="272"/>
      <point x="414" y="443"/>
      <point x="414" y="729" type="curve" smooth="yes"/>
      <point x="414" y="1021"/>
      <point x="523" y="1197"/>
      <point x="736" y="1197" type="curve" smooth="yes"/>
      <point x="952" y="1197"/>
      <point x="1055" y="1021"/>
      <point x="1055" y="729" type="curve" smooth="yes"/>
      <point x="1055" y="443"/>
      <point x="951" y="272"/>
    </contour>
  </outline>
</glyph>
<glyph name="oe" format="1">
  <advance width="1939"/>
  <unicode hex="0153"/>
  <outline>
    <contour>
      <point x="612" y="-22" type="curve" smooth="yes"/>
      <point x="818" y="-22"/>
      <point x="935" y="51"/>
      <point x="999" y="147" type="curve"/>
      <point x="1069" y="51"/>
      <point x="1214" y="-20"/>
      <point x="1394" y="-20" type="curve" smooth="yes"/>
      <point x="1584" y="-20"/>
      <point x="1756" y="38"/>
      <point x="1839" y="122" type="curve"/>
      <point x="1753" y="319" type="line"/>
      <point x="1735" y="319" type="line"/>
      <point x="1654" y="266"/>
      <point x="1546" y="231"/>
      <point x="1439" y="231" type="curve" smooth="yes"/>
      <point x="1310" y="231"/>
      <point x="1215" y="300"/>
      <point x="1198" y="416" type="curve"/>
      <point x="1835" y="416" type="line"/>
      <point x="1835" y="416"/>
      <point x="1848" y="468"/>
      <point x="1848" y="572" type="curve" smooth="yes"/>
      <point x="1836" y="878"/>
      <point x="1714" y="1101"/>
      <point x="1352" y="1101" type="curve" smooth="yes"/>
      <point x="1205" y="1101"/>
      <point x="1073" y="1051"/>
      <point x="990" y="950" type="curve"/>
      <point x="927" y="1041"/>
      <point x="793" y="1101"/>
      <point x="612" y="1101" type="curve" smooth="yes"/>
      <point x="269" y="1101"/>
      <point x="71" y="872"/>
      <point x="71" y="546" type="curve" smooth="yes"/>
      <point x="71" y="210"/>
      <point x="266" y="-22"/>
    </contour>
    <contour>
      <point x="633" y="231" type="curve" smooth="yes"/>
      <point x="537" y="231"/>
      <point x="472" y="308"/>
      <point x="472" y="546" type="curve" smooth="yes"/>
      <point x="472" y="775"/>
      <point x="535" y="849"/>
      <point x="633" y="849" type="curve" smooth="yes"/>
      <point x="731" y="849"/>
      <point x="793" y="775"/>
      <point x="793" y="546" type="curve" smooth="yes"/>
      <point x="793" y="311"/>
      <point x="727" y="231"/>
    </contour>
    <contour>
      <point x="1200" y="624" type="line"/>
      <point x="1206" y="796"/>
      <point x="1274" y="854"/>
      <point x="1371" y="854" type="curve" smooth="yes"/>
      <point x="1465" y="854"/>
      <point x="1513" y="792"/>
      <point x="1513" y="624" type="curve"/>
    </contour>
  </outline>
</glyph>
<glyph name="florin" format="1">
  <advance width="1247"/>
  <unicode hex="0192"/>
  <outline>
    <contour>
      <point x="138" y="-448" type="curve" smooth="yes"/>
      <point x="368" y="-448"/>
      <point x="503" y="-284"/>
      <point x="568" y="110" type="curve" smooth="yes"/>
      <point x="680" y="939" type="line"/>
      <point x="1033" y="939" type="line"/>
      <point x="1048" y="1009" type="line"/>
      <point x="696" y="1009" type="line"/>
      <point x="753" y="1344" type="line" smooth="yes"/>
      <point x="786" y="1535"/>
      <point x="917" y="1565"/>
      <point x="979" y="1565" type="curve" smooth="yes"/>
      <point x="1124" y="1565"/>
      <point x="1154" y="1456"/>
      <point x="1175" y="1310" type="curve"/>
      <point x="1335" y="1310" type="line"/>
      <point x="1323" y="1579"/>
      <point x="1223" y="1775"/>
      <point x="940" y="1775" type="curve" smooth="yes"/>
      <point x="658" y="1775"/>
      <point x="467" y="1620"/>
      <point x="416" y="1281" type="curve" smooth="yes"/>
      <point x="375" y="1009" type="line"/>
      <point x="135" y="1009" type="line"/>
      <point x="120" y="939" type="line"/>
      <point x="365" y="939" type="line"/>
      <point x="255" y="97" type="line"/>
      <point x="214" y="-196"/>
      <point x="179" y="-276"/>
      <point x="49" y="-276" type="curve" smooth="yes"/>
      <point x="0" y="-276"/>
      <point x="-60" y="-265"/>
      <point x="-140" y="-251" type="curve"/>
      <point x="-174" y="-378" type="line"/>
      <point x="-54" y="-423"/>
      <point x="50" y="-448"/>
    </contour>
  </outline>
</glyph>
<glyph name="apostrophemod" format="1">
  <advance width="651"/>
  <unicode hex="02BC"/>
  <outline>
    <contour>
      <point x="31" y="1077" type="curve"/>
      <point x="304" y="1077" type="line"/>
      <point x="304" y="1077"/>
      <point x="357" y="1344"/>
      <point x="395" y="1555" type="curve"/>
      <point x="79" y="1555" type="line"/>
      <point x="67" y="1448"/>
      <point x="31" y="1077"/>
    </contour>
  </outline>
</glyph>
<glyph name="uni02C9" format="1">
  <advance width="600"/>
  <unicode hex="02C9"/>
  <outline>
    <contour>
      <point x="287" y="1084" type="move" name="_top"/>
    </contour>
    <contour>
      <point x="-82" y="1358" type="line"/>
      <point x="662" y="1358" type="line"/>
      <point x="662" y="1553" type="line"/>
      <point x="-82" y="1553" type="line"/>
    </contour>
  </outline>
</glyph>
<glyph name="breve" format="1">
  <advance width="953"/>
  <unicode hex="02D8"/>
  <outline>
    <contour>
      <point x="452" y="1084" type="move" name="_top"/>
    </contour>
    <contour>
      <point x="453" y="1329" type="curve" smooth="yes"/>
      <point x="645" y="1329"/>
      <point x="762" y="1440"/>
      <point x="762" y="1611" type="curve"/>
      <point x="555" y="1611" type="line"/>
      <point x="555" y="1562"/>
      <point x="518" y="1530"/>
      <point x="453" y="1530" type="curve" smooth="yes"/>
      <point x="387" y="1530"/>
      <point x="350" y="1562"/>
      <point x="350" y="1611" type="curve"/>
      <point x="140" y="1611" type="line"/>
      <point x="140" y="1440"/>
      <point x="259" y="1329"/>
    </contour>
  </outline>
</glyph>
<glyph name="dotaccent" format="1">
  <advance width="682"/>
  <unicode hex="02D9"/>
  <outline>
    <contour>
      <point x="344" y="1082" type="move" name="_top"/>
    </contour>
    <contour>
      <point x="346" y="1258" type="curve" smooth="yes"/>
      <point x="480" y="1258"/>
      <point x="565" y="1340"/>
      <point x="565" y="1467" type="curve" smooth="yes"/>
      <point x="565" y="1585"/>
      <point x="480" y="1666"/>
      <point x="346" y="1666" type="curve" smooth="yes"/>
      <point x="212" y="1666"/>
      <point x="127" y="1585"/>
      <point x="127" y="1467" type="curve" smooth="yes"/>
      <point x="127" y="1340"/>
      <point x="212" y="1258"/>
    </contour>
  </outline>
</glyph>
<glyph name="ogonek" format="1">
  <advance width="766"/>
  <unicode hex="02DB"/>
  <outline>
    <contour>
      <point x="479" y="0" type="move" name="_ogonek"/>
    </contour>
    <contour>
      <point x="454" y="-455" type="curve" smooth="yes"/>
      <point x="524" y="-455"/>
      <point x="589" y="-439"/>
      <point x="659" y="-412" type="curve"/>
      <point x="649" y="-237" type="line"/>
      <point x="638" y="-245"/>
      <point x="572" y="-275"/>
      <point x="509" y="-275" type="curve" smooth="yes"/>
      <point x="469" y="-275"/>
      <point x="443" y="-231"/>
      <point x="443" y="-201" type="curve" smooth="yes"/>
      <point x="443" y="-146"/>
      <point x="461" y="-67"/>
      <point x="549" y="4" type="curve"/>
      <point x="419" y="4" type="line"/>
      <point x="349" y="-40"/>
      <point x="237" y="-116"/>
      <point x="237" y="-257" type="curve" smooth="yes"/>
      <point x="237" y="-396"/>
      <point x="345" y="-455"/>
    </contour>
  </outline>
</glyph>
<glyph name="breveinvertedcomb" format="1">
  <advance width="891"/>
  <unicode hex="0311"/>
  <outline>
    <contour>
      <point x="456" y="1084" type="move" name="_top"/>
    </contour>
    <contour>
      <point x="142" y="1329" type="curve"/>
      <point x="352" y="1329" type="line"/>
      <point x="352" y="1377"/>
      <point x="389" y="1410"/>
      <point x="455" y="1410" type="curve" smooth="yes"/>
      <point x="520" y="1410"/>
      <point x="557" y="1377"/>
      <point x="557" y="1329" type="curve"/>
      <point x="764" y="1329" type="line"/>
      <point x="764" y="1500"/>
      <point x="647" y="1611"/>
      <point x="455" y="1611" type="curve" smooth="yes"/>
      <point x="261" y="1611"/>
      <point x="142" y="1500"/>
    </contour>
  </outline>
</glyph>
<glyph name="commaaccent" format="1">
  <advance width="625"/>
  <unicode hex="0326"/>
  <outline>
    <contour>
      <point x="351" y="0" type="move" name="_bot"/>
    </contour>
    <contour>
      <point x="109" y="-560" type="curve"/>
      <point x="353" y="-560" type="line"/>
      <point x="353" y="-560"/>
      <point x="461" y="-278"/>
      <point x="507" y="-130" type="curve" smooth="yes"/>
      <point x="507" y="-93" type="line"/>
      <point x="203" y="-93" type="line"/>
      <point x="185" y="-176"/>
      <point x="126" y="-473"/>
    </contour>
  </outline>
</glyph>
<glyph name="Delta" format="1">
  <advance width="1334"/>
  <unicode hex="0394"/>
  <outline>
    <contour>
      <point x="18" y="0" type="line"/>
      <point x="1281" y="0" type="line"/>
      <point x="772" y="1528" type="line"/>
      <point x="527" y="1528" type="line"/>
    </contour>
    <contour>
      <point x="328" y="211" type="line"/>
      <point x="648" y="1249" type="line"/>
      <point x="976" y="211" type="line"/>
    </contour>
  </outline>
</glyph>
<glyph name="pi" format="1">
  <advance width="1502"/>
  <unicode hex="03C0"/>
  <outline>
    <contour>
      <point x="1117" y="-13" type="curve" smooth="yes"/>
      <point x="1210" y="-19"/>
      <point x="1290" y="10"/>
      <point x="1324" y="43" type="curve"/>
      <point x="1324" y="168" type="line"/>
      <point x="1307" y="162"/>
      <point x="1282" y="156"/>
      <point x="1257" y="156" type="curve" smooth="yes"/>
      <point x="1205" y="156"/>
      <point x="1153" y="181"/>
      <point x="1153" y="267" type="curve" smooth="yes"/>
      <point x="1153" y="439"/>
      <point x="1153" y="677"/>
      <point x="1157" y="825" type="curve"/>
      <point x="1389" y="825" type="line"/>
      <point x="1389" y="1082" type="line"/>
      <point x="517" y="1082" type="line" smooth="yes"/>
      <point x="285" y="1082"/>
      <point x="212" y="910"/>
      <point x="212" y="697" type="curve"/>
      <point x="306" y="697" type="line"/>
      <point x="318" y="773"/>
      <point x="357" y="824"/>
      <point x="435" y="825" type="curve" smooth="yes"/>
      <point x="486" y="825" type="line"/>
      <point x="423" y="380" type="line" smooth="yes"/>
      <point x="394" y="169"/>
      <point x="256" y="108"/>
      <point x="224" y="108" type="curve"/>
      <point x="224" y="4" type="line"/>
      <point x="563" y="4"/>
      <point x="630" y="103"/>
      <point x="641" y="317" type="curve" smooth="yes"/>
      <point x="667" y="825" type="line"/>
      <point x="970" y="825" type="line"/>
      <point x="933" y="623"/>
      <point x="897" y="437"/>
      <point x="897" y="293" type="curve" smooth="yes"/>
      <point x="897" y="118"/>
      <point x="950" y="2"/>
    </contour>
  </outline>
</glyph>
<glyph name="quoteright" format="1">
  <advance width="532"/>
  <unicode hex="2019"/>
  <outline>
    <contour>
      <point x="103" y="1036" type="line"/>
      <point x="336" y="1036" type="line"/>
      <point x="463" y="1567" type="line"/>
      <point x="137" y="1567" type="line"/>
    </contour>
  </outline>
</glyph>
<glyph name="quotesinglbase" format="1">
  <advance width="541"/>
  <unicode hex="201A"/>
  <outline>
    <contour>
      <point x="105" y="-397" type="line"/>
      <point x="338" y="-397" type="line"/>
      <point x="465" y="136" type="line"/>
      <point x="137" y="136" type="line"/>
    </contour>
  </outline>
</glyph>
<glyph name="quotedblright" format="1">
  <advance width="992"/>
  <unicode hex="201D"/>
  <outline>
    <contour>
      <point x="103" y="1036" type="line"/>
      <point x="336" y="1036" type="line"/>
      <point x="463" y="1567" type="line"/>
      <point x="137" y="1567" type="line"/>
    </contour>
    <contour>
      <point x="548" y="1036" type="line"/>
      <point x="779" y="1036" type="line"/>
      <point x="907" y="1567" type="line"/>
      <point x="581" y="1567" type="line"/>
    </contour>
  </outline>
</glyph>
<glyph name="bullet" format="1">
  <advance width="976"/>
  <unicode hex="2022"/>
  <outline>
    <contour>
      <point x="476" y="333" type="curve" smooth="yes"/>
      <point x="688" y="333"/>
      <point x="843" y="495"/>
      <point x="843" y="689" type="curve" smooth="yes"/>
      <point x="843" y="885"/>
      <point x="694" y="1039"/>
      <point x="483" y="1039" type="curve" smooth="yes"/>
      <point x="271" y="1039"/>
      <point x="115" y="877"/>
      <point x="115" y="684" type="curve" smooth="yes"/>
      <point x="115" y="491"/>
      <point x="263" y="333"/>
    </contour>
  </outline>
</glyph>
<glyph name="uni2074" format="1">
  <advance width="684"/>
  <unicode hex="2074"/>
  <outline>
    <contour>
      <point x="331" y="572" type="line"/>
      <point x="517" y="572" type="line"/>
      <point x="518" y="744" type="line"/>
      <point x="608" y="744" type="line"/>
      <point x="628" y="903" type="line"/>
      <point x="516" y="903" type="line"/>
      <point x="516" y="1452" type="line"/>
      <point x="320" y="1452" type="line"/>
      <point x="-31" y="911" type="line"/>
      <point x="-31" y="744" type="line"/>
      <point x="331" y="744" type="line"/>
    </contour>
    <contour>
      <point x="177" y="903" type="line"/>
      <point x="331" y="1201" type="line"/>
      <point x="332" y="903" type="line"/>
    </contour>
  </outline>
</glyph>
<glyph name="Euro" format="1">
  <advance width="1391"/>
  <unicode hex="20AC"/>
  <outline>
    <contour>
      <point x="-98" y="526" type="line"/>
      <point x="803" y="526" type="line"/>
      <point x="800" y="688" type="line"/>
      <point x="276" y="688" type="line"/>
      <point x="276" y="798" type="line"/>
      <point x="800" y="798" type="line"/>
      <point x="798" y="962" type="line"/>
      <point x="-102" y="962" type="line"/>
      <point x="-101" y="798" type="line"/>
      <point x="78" y="798" type="line"/>
      <point x="78" y="688" type="line"/>
      <point x="-103" y="688" type="line"/>
    </contour>
    <component base="C" xOffset="-29"/>
  </outline>
</glyph>
<glyph name="trademark" format="1">
  <advance width="2013"/>
  <unicode hex="2122"/>
  <outline>
    <contour>
      <point x="889" y="521" type="line"/>
      <point x="1102" y="521" type="line"/>
      <point x="1123" y="1043" type="line"/>
      <point x="1346" y="590" type="line"/>
      <point x="1448" y="590" type="line"/>
      <point x="1671" y="1045" type="line"/>
      <point x="1693" y="521" type="line"/>
      <point x="1905" y="521" type="line"/>
      <point x="1884" y="1456" type="line"/>
      <point x="1661" y="1456" type="line"/>
      <point x="1398" y="900" type="line"/>
      <point x="1132" y="1456" type="line"/>
      <point x="909" y="1456" type="line"/>
    </contour>
    <contour>
      <point x="329" y="521" type="line"/>
      <point x="551" y="521" type="line"/>
      <point x="551" y="1286" type="line"/>
      <point x="792" y="1286" type="line"/>
      <point x="792" y="1456" type="line"/>
      <point x="87" y="1456" type="line"/>
      <point x="87" y="1286" type="line"/>
      <point x="329" y="1286" type="line"/>
    </contour>
  </outline>
</glyph>
<glyph name="partialdiff" format="1">
  <advance width="1384"/>
  <unicode hex="2202"/>
  <outline>
    <contour>
      <point x="558" y="-21" type="curve" smooth="yes"/>
      <point x="945" y="-21"/>
      <point x="1185" y="397"/>
      <point x="1185" y="931" type="curve" smooth="yes"/>
      <point x="1185" y="1448"/>
      <point x="717" y="1723"/>
      <point x="273" y="1457" type="curve"/>
      <point x="332" y="1305" type="line"/>
      <point x="633" y="1485"/>
      <point x="921" y="1323"/>
      <point x="911" y="969" type="curve"/>
      <point x="150" y="923"/>
      <point x="-49" y="-21"/>
    </contour>
    <contour>
      <point x="572" y="136" type="curve" smooth="yes"/>
      <point x="406" y="136"/>
      <point x="526" y="755"/>
      <point x="903" y="824" type="curve"/>
      <point x="879" y="542"/>
      <point x="766" y="136"/>
    </contour>
  </outline>
</glyph>
<glyph name="infinity" format="1">
  <advance width="1815"/>
  <unicode hex="221E"/>
  <outline>
    <contour>
      <point x="491" y="259" type="curve" smooth="yes"/>
      <point x="661" y="259"/>
      <point x="795" y="374"/>
      <point x="916" y="539" type="curve"/>
      <point x="1056" y="350"/>
      <point x="1183" y="259"/>
      <point x="1339" y="259" type="curve" smooth="yes"/>
      <point x="1541" y="259"/>
      <point x="1700" y="425"/>
      <point x="1700" y="662" type="curve" smooth="yes"/>
      <point x="1700" y="887"/>
      <point x="1570" y="1051"/>
      <point x="1341" y="1051" type="curve" smooth="yes"/>
      <point x="1163" y="1051"/>
      <point x="1033" y="934"/>
      <point x="916" y="770" type="curve"/>
      <point x="792" y="939"/>
      <point x="661" y="1051"/>
      <point x="487" y="1051" type="curve" smooth="yes"/>
      <point x="286" y="1051"/>
      <point x="126" y="886"/>
      <point x="126" y="680" type="curve" smooth="yes"/>
      <point x="126" y="453"/>
      <point x="261" y="259"/>
    </contour>
    <contour>
      <point x="493" y="486" type="curve" smooth="yes"/>
      <point x="392" y="486"/>
      <point x="321" y="573"/>
      <point x="321" y="657" type="curve" smooth="yes"/>
      <point x="321" y="750"/>
      <point x="385" y="827"/>
      <point x="486" y="827" type="curve" smooth="yes"/>
      <point x="584" y="827"/>
      <point x="666" y="764"/>
      <point x="743" y="657" type="curve"/>
      <point x="665" y="553"/>
      <point x="580" y="486"/>
    </contour>
    <contour>
      <point x="1341" y="486" type="curve" smooth="yes"/>
      <point x="1256" y="486"/>
      <point x="1188" y="538"/>
      <point x="1095" y="659" type="curve"/>
      <point x="1170" y="758"/>
      <point x="1249" y="827"/>
      <point x="1337" y="827" type="curve" smooth="yes"/>
      <point x="1431" y="827"/>
      <point x="1496" y="760"/>
      <point x="1496" y="685" type="curve" smooth="yes"/>
      <point x="1496" y="561"/>
      <point x="1447" y="486"/>
    </contour>
  </outline>
</glyph>
<glyph name="integral" format="1">
  <advance width="683"/>
  <unicode hex="222B"/>
  <outline>
    <contour>
      <point x="89" y="-525" type="curve" smooth="yes"/>
      <point x="332" y="-525"/>
      <point x="471" y="-330"/>
      <point x="471" y="-37" type="curve" smooth="yes"/>
      <point x="471" y="1204" type="line" smooth="yes"/>
      <point x="471" y="1364"/>
      <point x="503" y="1416"/>
      <point x="612" y="1416" type="curve" smooth="yes"/>
      <point x="632" y="1416"/>
      <point x="658" y="1413"/>
      <point x="684" y="1412" type="curve"/>
      <point x="684" y="1637" type="line"/>
      <point x="604" y="1655"/>
      <point x="540" y="1667"/>
      <point x="482" y="1667" type="curve" smooth="yes"/>
      <point x="250" y="1667"/>
      <point x="134" y="1484"/>
      <point x="134" y="1195" type="curve" smooth="yes"/>
      <point x="134" y="-45" type="line" smooth="yes"/>
      <point x="134" y="-194"/>
      <point x="74" y="-212"/>
      <point x="23" y="-212" type="curve" smooth="yes"/>
      <point x="-28" y="-212"/>
      <point x="-61" y="-205"/>
      <point x="-108" y="-200" type="curve"/>
      <point x="-108" y="-494" type="line"/>
      <point x="-30" y="-516"/>
      <point x="35" y="-525"/>
    </contour>
  </outline>
</glyph>
<glyph name="approxequal" format="1">
  <advance width="1299"/>
  <unicode hex="2248"/>
  <outline>
    <contour>
      <point x="870" y="933" type="curve" smooth="yes"/>
      <point x="813" y="933"/>
      <point x="751" y="963"/>
      <point x="678" y="1004" type="curve"/>
      <point x="567" y="1067"/>
      <point x="500" y="1100"/>
      <point x="401" y="1100" type="curve" smooth="yes"/>
      <point x="224" y="1100"/>
      <point x="124" y="985"/>
      <point x="93" y="807" type="curve"/>
      <point x="251" y="736" type="line"/>
      <point x="272" y="836"/>
      <point x="312" y="890"/>
      <point x="380" y="898" type="curve" smooth="yes"/>
      <point x="439" y="906"/>
      <point x="495" y="873"/>
      <point x="537" y="851" type="curve" smooth="yes"/>
      <point x="684" y="769"/>
      <point x="771" y="733"/>
      <point x="877" y="733" type="curve" smooth="yes"/>
      <point x="1073" y="733"/>
      <point x="1137" y="851"/>
      <point x="1176" y="1021" type="curve"/>
      <point x="1035" y="1091" type="line"/>
      <point x="990" y="966"/>
      <point x="930" y="933"/>
    </contour>
    <contour>
      <point x="870" y="508" type="curve" smooth="yes"/>
      <point x="813" y="508"/>
      <point x="751" y="538"/>
      <point x="678" y="579" type="curve"/>
      <point x="567" y="641"/>
      <point x="500" y="675"/>
      <point x="401" y="675" type="curve" smooth="yes"/>
      <point x="224" y="675"/>
      <point x="124" y="560"/>
      <point x="93" y="382" type="curve"/>
      <point x="251" y="311" type="line"/>
      <point x="272" y="411"/>
      <point x="312" y="465"/>
      <point x="380" y="473" type="curve" smooth="yes"/>
      <point x="439" y="480"/>
      <point x="495" y="448"/>
      <point x="537" y="426" type="curve" smooth="yes"/>
      <point x="684" y="344"/>
      <point x="771" y="307"/>
      <point x="877" y="307" type="curve" smooth="yes"/>
      <point x="1073" y="307"/>
      <point x="1137" y="426"/>
      <point x="1176" y="596" type="curve"/>
      <point x="1035" y="665" type="line"/>
      <point x="990" y="541"/>
      <point x="930" y="508"/>
    </contour>
  </outline>
</glyph>
<glyph name="lessequal" format="1">
  <advance width="1192"/>
  <unicode hex="2264"/>
  <outline>
    <contour>
      <point x="1053" y="345" type="line"/>
      <point x="1053" y="594" type="line"/>
      <point x="428" y="824" type="line"/>
      <point x="1059" y="1058" type="line"/>
      <point x="1059" y="1300" type="line"/>
      <point x="128" y="894" type="line"/>
      <point x="128" y="749" type="line"/>
    </contour>
    <contour>
      <point x="109" y="-9" type="line"/>
      <point x="1050" y="-9" type="line"/>
      <point x="1050" y="178" type="line"/>
      <point x="109" y="176" type="line"/>
    </contour>
  </outline>
</glyph>
<glyph name="greaterequal" format="1">
  <advance width="1192"/>
  <unicode hex="2265"/>
  <outline>
    <contour>
      <point x="139" y="210" type="line"/>
      <point x="1071" y="683" type="line"/>
      <point x="1071" y="824" type="line"/>
      <point x="139" y="1302" type="line"/>
      <point x="139" y="1060" type="line"/>
      <point x="823" y="753" type="line"/>
      <point x="139" y="461" type="line"/>
    </contour>
    <contour>
      <point x="140" y="1" type="line"/>
      <point x="1071" y="1" type="line"/>
      <point x="1071" y="190" type="line"/>
      <point x="140" y="192" type="line"/>
    </contour>
  </outline>
</glyph>
<glyph name="caron.alt" format="1">
  <advance width="582"/>
  <outline>
    <contour>
      <point x="-28" y="1082" type="move" name="_caron.alt"/>
    </contour>
    <contour>
      <point x="311" y="1109" type="line"/>
      <point x="526" y="1109" type="line"/>
      <point x="590" y="1562" type="line"/>
      <point x="309" y="1562" type="line"/>
    </contour>
  </outline>
</glyph>
<glyph name="dotlessj" format="1">
  <advance width="733"/>
  <outline>
    <contour>
      <point x="35" y="-609" type="line"/>
      <point x="130" y="-562" type="line"/>
      <point x="408" y="-423"/>
      <point x="586" y="-352"/>
      <point x="586" y="-36" type="curve" smooth="yes"/>
      <point x="586" y="1082" type="line"/>
      <point x="182" y="1082" type="line"/>
      <point x="182" y="-3" type="line" smooth="yes"/>
      <point x="182" y="-143"/>
      <point x="157" y="-187"/>
      <point x="-16" y="-274" type="curve" smooth="yes"/>
      <point x="-116" y="-322" type="line"/>
    </contour>
  </outline>
</glyph>
